<svg version="1.1" viewBox="0 0 1372.8 384" xmlns="http://www.w3.org/2000/svg">
 <g stroke-width=".32">
  <path d="m1.4687 194.44v-192h1372.8v384h-1372.8zm206.4 182.39c12.451-0.77795 21.782-2.2954 35.68-5.8023 12.211-3.0812 22.541-6.8424 33.622-12.242 16.549-8.064 31.029-17.989 45.153-30.95 12.206-11.201 24.716-27.012 33.871-42.81 3.2747-5.6507 8.5996-16.613 10.892-22.422 3.8169-9.6731 7.3017-21.628 9.7005-33.28 4.7295-22.972 4.6837-47.714-0.13095-70.755-3.4778-16.643-8.0835-30.438-14.686-43.988-8.064-16.549-17.989-31.029-30.95-45.153-11.201-12.206-27.012-24.716-42.81-33.871-5.6507-3.2747-16.613-8.5997-22.422-10.892-12.414-4.8983-28.86-9.2983-42.24-11.301-9.446-1.4136-14.738-1.7735-26.08-1.7735-17.235 0-28.092 1.4009-46.08 5.9459-12.227 3.0895-22.547 6.8475-33.622 12.244-16.633 8.105-31.198 18.102-45.279 31.08-12.292 11.329-24.595 26.89-33.746 42.68-3.2288 5.5715-8.5512 16.534-10.886 22.422-4.6442 11.711-8.932 27.436-11.028 40.445-3.3168 20.582-2.8534 42.634 1.3221 62.915 3.5051 17.025 8.0607 30.75 14.824 44.662 8.0201 16.497 17.97 31.016 30.942 45.153 11.201 12.206 27.012 24.716 42.81 33.871 5.6507 3.2747 16.613 8.5996 22.422 10.892 15.035 5.9327 33.741 10.541 49.92 12.297 8.5648 0.92989 20.004 1.1805 28.8 0.63091zm703.1-86.236c1.9477-0.67279 4.1075-2.5939 5.4923-4.8855 0.83232-1.3773 41.165-92.952 44.777-101.67 0.97821-2.3598 0.94336-6.4898-0.0725-8.58-1.6788-3.4546-4.1124-4.8408-8.4991-4.8411-5.1111-3.2e-4 -7.9916 1.6463-10.158 5.8068-0.62259 1.1959-5.9955 14.095-11.94 28.666-5.9442 14.57-10.907 26.378-11.027 26.24-0.1208-0.13828-5.1446-12.563-11.164-27.611-6.8876-17.218-11.356-27.969-12.056-29.003-2.0583-3.0414-5.5974-4.5295-9.9081-4.1662-6.3987 0.53924-9.7502 3.7399-9.7451 9.3064 0 1.0686 0.16144 2.5182 0.35661 3.2211s7.1783 17.004 15.518 36.224 15.163 35.097 15.163 35.281c0 0.18383-2.306 5.4429-5.1244 11.687-2.8184 6.2439-5.3548 12.252-5.6363 13.351-1.3317 5.1981 1.3923 10.237 6.1903 11.451 1.6527 0.41817 6.0028 0.15098 7.8326-0.4811zm-337.41-30.897c3.717-0.41394 5.7563-1.2235 7.2519-2.879 1.7025-1.8844 2.1958-4.0443 2.0332-8.902-0.13414-4.0084-0.55494-5.6656-1.603-6.3133-0.21443-0.13251-2.9875-0.24964-6.1623-0.26029-5.2376-0.0176-5.9128-0.0842-7.2871-0.71901-3.2441-1.4985-5.1186-3.6938-6.4391-7.541-0.68585-1.9982-0.68637-2.0263-0.85222-47.439-0.11693-32.022-0.27053-45.729-0.52007-46.419-1.1276-3.1163-3.2826-5.2733-6.0894-6.095-2.448-0.71668-6.7292-0.71433-9.1866 5e-3 -1.4736 0.43139-2.2503 0.91919-3.5788 2.2478-3.1012 3.1012-2.8591-1.2626-2.8591 51.541 0 51.018-0.0923 48.565 2.0786 55.276 1.4559 4.5009 3.1713 7.3289 6.366 10.495 2.178 2.1586 3.3255 3.0107 5.4755 4.066 5.8412 2.8671 13.074 3.8611 21.373 2.937zm58.179-0.14837c6.0772-1.0598 10.319-3.2187 14.372-7.3148 1.6614-1.679 2.9695-3.3646 3.7173-4.7899l1.1537-2.1991 0.16774 3.4791c0.19866 4.1208 0.77495 5.9488 2.4897 7.8968 1.8588 2.1117 3.9059 2.8911 7.668 2.9194 5.1172 0.0386 7.7727-1.415 9.5646-5.2358l0.83542-1.7813v-27.04c0-26.968-3e-3 -27.049-0.72947-30.337-3.1844-14.391-10.87-21.483-26.311-24.277-4.2709-0.77279-14.5-0.77454-19.52-3e-3 -7.2304 1.1107-16.345 3.728-20.782 5.9676-3.3297 1.6808-5.1383 4.6693-5.1383 8.4903 0 4.5271 3.163 8.1772 7.061 8.1485 1.4974-0.011 2.6424-0.37285 7.819-2.4709 6.3609-2.578 13.193-3.9228 19.881-3.9131 9.5621 0.014 14.093 2.7542 16 9.6764 0.25424 0.92295 0.55056 3.5861 0.65846 5.9181l0.19616 4.24-6.2079 5e-3c-24.18 0.0181-38.197 3.0673-44.967 9.7824-4.0371 4.004-5.6732 8.5182-5.6732 15.653 0 6.0518 1.1291 9.9312 4.2116 14.47 6.5165 9.596 20.662 14.96 33.532 12.715zm-3.8713-15.068c-6.6462-1.025-10.97-4.8056-12.03-10.518-0.39575-2.1339-0.19408-4.7651 0.49078-6.4043 0.74547-1.7841 2.8916-3.8333 5.0107-4.7843 4.1888-1.8798 11.098-2.7308 22.175-2.7312l7.3266-2.7e-4 -0.19194 3.92c-0.10553 2.156-0.42598 4.784-0.71209 5.84-1.7525 6.4688-6.5598 11.679-12.667 13.729-2.3978 0.80492-7.1945 1.2887-9.402 0.94827zm114.68 15.064c8.2206-1.2052 10.352-2.3657 11.72-6.3814 0.74202-2.1774 0.97172-6.2787 0.48327-8.629-0.29424-1.416-0.66816-2.1805-1.4477-2.96-0.97085-0.97087-1.2059-1.0501-3.083-1.0398-1.1176 6e-3 -2.968 0.21712-4.112 0.46876-2.7434 0.60344-8.2647 0.59671-10.852-0.0132-5.0872-1.1991-8.0644-4.2711-9.5176-9.8207-0.45241-1.7277-0.54461-4.813-0.66432-22.231l-0.13897-20.224 11.147-0.0955c10.147-0.087 11.247-0.149 12.267-0.69137 3.1534-1.6776 4.3228-4.0703 4.0966-8.3816-0.17978-3.425-1.2116-5.2901-3.61-6.525l-1.5877-0.81753-22.218-0.1834-0.10928-10.148c-0.0967-8.9762-0.17632-10.294-0.68947-11.408-1.0053-2.1827-2.1252-3.342-4.2294-4.3778-1.6725-0.82337-2.5422-1.0308-4.8817-1.1642-5.828-0.3323-9.4287 1.425-11.314 5.5217-0.71049 1.5438-0.7399 1.9509-0.83683 11.582l-0.10048 9.9815-6.3098 0.0985c-6.0416 0.0943-6.3773 0.13322-7.8967 0.91599-2.3871 1.2298-3.4299 3.1045-3.6059 6.4825-0.1658 3.1815 0.27724 4.9805 1.5965 6.4831 2.0216 2.3025 2.8551 2.5244 9.9191 2.6408l6.3023 0.10381 0.12605 22.456c0.10886 19.392 0.19827 22.782 0.6552 24.847 2.8044 12.671 9.7066 19.872 21.803 22.745 5.4569 1.296 11.597 1.5712 17.09 0.76593zm48.279-0.93598c2.1396-0.97957 2.7756-1.5016 3.8075-3.1255 1.7341-2.729 1.7144-2.3177 1.7144-35.809v-30.955l18.4-0.196 1.6205-0.89845c2.8826-1.5983 3.9066-4.0499 3.5827-8.5777-0.21085-2.9469-1.3618-4.8756-3.5963-6.0263-1.5799-0.81365-1.6313-0.81796-10.844-0.91159l-9.257-0.0941 0.18851-4.2259c0.10986-2.4623 0.40944-4.9604 0.71789-5.9859 2.2468-7.4705 7.5-10.803 18.621-11.813 5.0447-0.45813 6.668-1.3833 8.0976-4.615 1.5685-3.5459 1.0269-7.4462-1.3805-9.9414-2.0442-2.1188-3.526-2.3532-10.714-1.6953-11.253 1.03-18.106 3.1638-24.651 7.6763-2.72 1.8752-6.1679 5.4645-7.6896 8.0051-2.8395 4.7405-4.7166 11.15-5.0324 17.183-0.0967 1.848-0.24505 3.819-0.3296 4.3799l-0.15369 1.0199-5.6798 0.10008c-5.3618 0.0945-5.7686 0.14585-7.2664 0.9176-2.2337 1.1509-3.3847 3.0801-3.5955 6.0263-0.32396 4.5278 0.70004 6.9795 3.5827 8.5777 1.5785 0.87516 1.7677 0.9012 7.3005 1.0044l5.68 0.10592 0.01 29.654c5e-3 16.628 0.14227 30.673 0.31126 31.974 0.67786 5.2186 3.1158 8.0444 7.809 9.0511 2.4179 0.51865 6.7204 0.1222 8.748-0.80607zm258.85 0.62122c2.07-0.27136 5.0943-0.78166 6.7206-1.134 9.098-1.9712 19.274-6.7836 22.952-10.854 4.4931-4.9732 3.2136-13.046-2.5115-15.847-1.6025-0.78401-2.0373-0.85728-4.2582-0.7175-2.3434 0.1475-2.7513 0.29796-7.7535 2.8598-7.0815 3.6267-11.562 4.986-18.88 5.7276-8.3803 0.84924-17.463-0.58968-23.84-3.7768-3.1695-1.5841-5.7272-3.4878-8.3431-6.2099-6.9727-7.2557-10.456-17.092-10.919-30.835-0.4422-13.122 2.0295-23.76 7.3612-31.68 1.8223-2.707 5.7587-6.6802 8.2822-8.3595 6.1168-4.0705 13.137-5.9446 22.338-5.9634 9.6823-0.0198 16.756 1.7849 24.16 6.1634 5.2772 3.1209 7.9638 3.4312 11.77 1.3596 3.5124-1.9117 5.5007-6.3485 4.7252-10.544-0.8296-4.4875-3.4577-7.1472-10.51-10.636-6.9232-3.4252-14.506-5.5145-23.392-6.4448-4.6178-0.48351-14.654-0.22274-19.394 0.50389-27.402 4.2013-45.255 22.946-48.927 51.373-1.0979 8.4992-0.9327 18.343 0.44192 26.336 3.3468 19.46 13.534 34.251 29.1 42.25 6.5841 3.3836 14.295 5.6841 21.945 6.5477 4.3375 0.48961 14.783 0.42302 18.931-0.12071zm105.23 0.16632c24.624-2.7515 39.84-16.84 39.84-36.888 0-13.088-5.8025-21.851-18.382-27.759-6.0883-2.8595-10.316-4.004-30.738-8.3209-11.812-2.4967-16.211-4.1734-19.46-7.4168-4.8117-4.8033-4.8084-13.834 0.01-19.711 6.0367-7.367 20.181-9.9738 35.61-6.5629 4.6666 1.0316 6.0557 1.5426 12.294 4.5215 4.1171 1.9662 5.4502 2.4572 6.971 2.5672 7.3681 0.53296 11.702-8.3655 7.2495-14.884-1.751-2.5633-9.0981-6.7351-16.149-9.1696-13.726-4.7393-31.538-5.0067-44.555-0.66894-14.941 4.979-24.782 15.359-27.098 28.582-0.6703 3.8272-0.6058 10.698 0.134 14.282 1.9998 9.6892 8.1991 17.187 18.116 21.91 5.6081 2.671 9.2974 3.7007 24.64 6.8772 5.632 1.166 11.558 2.466 13.17 2.8888 6.1594 1.6161 10.628 3.8397 12.876 6.4071 4.3544 4.9726 3.4302 13.662-1.9738 18.558-4.8783 4.4196-12.289 6.1971-24.232 5.812-12.817-0.41328-20.596-2.5576-32.678-9.0072-1.1649-0.62189-2.7849-1.2221-3.5999-1.3338-2.8806-0.39481-6.1295 1.6075-7.8269 4.8236-0.7696 1.4584-0.8551 1.9561-0.8551 4.9803 0 2.9084 0.1013 3.5535 0.7539 4.8 1.1447 2.1862 2.7871 3.7196 6.0528 5.6508 7.4509 4.4062 17.613 7.4977 29.193 8.881 4.3972 0.52525 16.602 0.63237 20.64 0.18115zm114.56 0c24.624-2.7515 39.84-16.84 39.84-36.888 0-13.088-5.8025-21.851-18.382-27.759-6.0883-2.8595-10.316-4.004-30.738-8.3209-11.812-2.4967-16.211-4.1734-19.46-7.4168-4.8117-4.8033-4.8084-13.834 0.01-19.711 6.0367-7.367 20.181-9.9738 35.61-6.5629 4.6666 1.0316 6.0557 1.5426 12.294 4.5215 4.1171 1.9662 5.4502 2.4572 6.971 2.5672 7.3681 0.53296 11.702-8.3655 7.2495-14.884-1.751-2.5633-9.0981-6.7351-16.149-9.1696-13.726-4.7393-31.538-5.0067-44.555-0.66894-14.941 4.979-24.782 15.359-27.098 28.582-0.6703 3.8272-0.6058 10.698 0.134 14.282 1.9998 9.6892 8.1991 17.187 18.116 21.91 5.6081 2.671 9.2974 3.7007 24.64 6.8772 5.632 1.166 11.558 2.466 13.17 2.8888 6.1594 1.6161 10.628 3.8397 12.876 6.4071 4.3544 4.9726 3.4302 13.662-1.9738 18.558-4.8783 4.4196-12.289 6.1971-24.232 5.812-12.817-0.41328-20.596-2.5576-32.678-9.0072-1.1649-0.62189-2.7849-1.2221-3.5999-1.3338-2.8806-0.39481-6.1295 1.6075-7.8269 4.8236-0.7696 1.4584-0.8551 1.9561-0.8551 4.9803 0 2.9084 0.1013 3.5535 0.7539 4.8 1.1447 2.1862 2.7871 3.7196 6.0528 5.6508 7.4509 4.4062 17.613 7.4977 29.193 8.881 4.3972 0.52525 16.602 0.63237 20.64 0.18115zm-822.99-0.46977c3.3089-0.98265 5.526-3.4635 6.3951-7.156 0.33235-1.412 0.42646-6.7207 0.43037-24.278l5e-3 -22.471 50.08-0.1786 1.7942-0.84134c3.0256-1.4188 4.4458-4.0609 4.4458-8.2714 0-4.0662-1.2642-6.4944-4.1951-8.0578l-1.4049-0.74949-50.72-0.1784v-34.862h26.502c29.131 0 28.67 0.0289 30.902-1.9314 1.7427-1.5301 2.5521-3.7984 2.5679-7.1967 0.0118-2.5414-0.096-3.1118-0.8984-4.7518-1.1261-2.3016-2.8522-3.5043-5.7548-4.0098-2.717-0.47314-63.828-0.48352-66.738-0.0113-3.0256 0.4909-4.9562 1.4415-6.5678 3.2341-2.803 3.1176-2.5732-2.1944-2.5732 59.467 0 51.759 0.0298 54.645 0.57728 56.215 1.0386 2.9768 3.7708 5.43 6.8578 6.1573 1.9646 0.46287 6.5417 0.39187 8.2945-0.12867zm405.97-0.60087c2.2775-1.1143 4.1443-3.3491 4.9369-5.9098 0.52039-1.6814 0.56093-4.3917 0.56093-37.492 0-34.244-0.0246-35.755-0.61062-37.542-0.78749-2.4008-2.8114-4.6787-5.06-5.6948-1.4658-0.66242-2.1764-0.76346-5.3694-0.76346-3.1625 0-3.905 0.10348-5.28 0.73579-3.2343 1.4874-4.9441 4.009-5.6014 8.2613-0.2295 1.4845-0.30963 13.369-0.24573 36.443 0.1049 37.877-0.0195 35.638 2.1625 38.933 1.9957 3.013 4.6454 4.1397 9.4486 4.018 2.7724-0.0703 3.4538-0.20341 5.0582-0.98837zm0.85779-104.68c3.0923-1.2575 5.314-3.5587 6.1526-6.3724 0.60451-2.0285 0.5151-7.402-0.15514-9.3204-1.4698-4.2072-5.1212-6.4286-11.117-6.7635-7.4369-0.41542-12.369 2.3514-13.963 7.8326-0.60294 2.074-0.47209 6.9628 0.22858 8.5411 1.3775 3.1027 3.7224 5.2147 6.9848 6.291 2.4408 0.80525 9.6897 0.67803 11.869-0.2083z" fill="#fefefe"/>
  <path d="m189.23 367.33c0.572-0.071 1.508-0.071 2.08 0s0.104 0.12906-1.04 0.12906-1.612-0.0581-1.04-0.12906zm14.4 0c0.572-0.071 1.508-0.071 2.08 0s0.104 0.12906-1.04 0.12906-1.612-0.0581-1.04-0.12906zm-19.68-0.30909c0.308-0.0805 0.812-0.0805 1.12 0s0.056 0.14634-0.56 0.14634-0.868-0.0659-0.56-0.14634zm25.92 0c0.308-0.0805 0.812-0.0805 1.12 0s0.056 0.14634-0.56 0.14634-0.868-0.0659-0.56-0.14634zm-29.434-0.32118c0.31135-0.0811 0.74335-0.0758 0.96 0.0118s-0.0381 0.15402-0.56609 0.14752c-0.528-6e-3 -0.70526-0.0782-0.39391-0.15939zm33.28 0c0.31135-0.0811 0.74335-0.0758 0.96 0.0118s-0.0381 0.15402-0.56609 0.14752c-0.528-6e-3 -0.70526-0.0782-0.39391-0.15939zm-36.326-0.31018c0.22-0.0888 0.58-0.0888 0.8 0s0.04 0.16141-0.4 0.16141-0.62-0.0726-0.4-0.16141zm39.36 0c0.22-0.0888 0.58-0.0888 0.8 0s0.04 0.16141-0.4 0.16141-0.62-0.0726-0.4-0.16141zm-41.9-0.32665c0.231-0.0925 0.507-0.0811 0.61333 0.0253 0.10634 0.10633-0.0827 0.18198-0.42 0.16809-0.37278-0.0154-0.4486-0.0912-0.19333-0.19334zm44.8 0c0.231-0.0925 0.507-0.0811 0.61333 0.0253 0.10634 0.10633-0.0827 0.18198-0.42 0.16809-0.37278-0.0154-0.4486-0.0912-0.19333-0.19334zm-47.04-0.32c0.231-0.0924 0.507-0.0811 0.61333 0.0253 0.10634 0.10633-0.0827 0.18198-0.42 0.16809-0.37278-0.0154-0.4486-0.0912-0.19333-0.19334zm49.28 0c0.231-0.0924 0.507-0.0811 0.61333 0.0253 0.10634 0.10633-0.0827 0.18198-0.42 0.16809-0.37278-0.0154-0.4486-0.0912-0.19333-0.19334zm-51.52-0.32c0.231-0.0924 0.507-0.0811 0.61333 0.0253 0.10634 0.10633-0.0827 0.18198-0.42 0.16809-0.37278-0.0154-0.4486-0.0912-0.19333-0.19334zm53.76 0c0.231-0.0924 0.507-0.0811 0.61333 0.0253 0.10634 0.10633-0.0827 0.18198-0.42 0.16809-0.37278-0.0154-0.4486-0.0912-0.19333-0.19334zm1.92-0.32c0.231-0.0924 0.507-0.0811 0.61333 0.0253 0.10634 0.10633-0.0827 0.18198-0.42 0.16809-0.37278-0.0154-0.4486-0.0912-0.19333-0.19334zm-59.52-0.32c0.231-0.0924 0.507-0.0811 0.61333 0.0253 0.10634 0.10633-0.0827 0.18198-0.42 0.16809-0.37278-0.0154-0.4486-0.0912-0.19333-0.19334zm61.44 0c0.231-0.0924 0.507-0.0811 0.61333 0.0253 0.10634 0.10633-0.0827 0.18198-0.42 0.16809-0.37278-0.0154-0.4486-0.0912-0.19333-0.19334zm-140.46-36.501c-0.39804-0.50755-0.38672-0.51885 0.12082-0.12083 0.308 0.24157 0.56 0.49357 0.56 0.56 0 0.26339-0.26278 0.0938-0.68082-0.43917zm219.24 0.43917c0-0.0664 0.252-0.31843 0.56-0.56 0.50754-0.39802 0.51886-0.38672 0.12082 0.12083-0.41804 0.53302-0.68082 0.70256-0.68082 0.43917zm-221.16-2.0392c-0.39804-0.50755-0.38672-0.51885 0.12082-0.12083 0.308 0.24157 0.56 0.49357 0.56 0.56 0 0.26339-0.26278 0.0938-0.68082-0.43917zm223.08 0.43917c0-0.0664 0.252-0.31843 0.56-0.56 0.50754-0.39802 0.51886-0.38672 0.12082 0.12083-0.41804 0.53302-0.68082 0.70256-0.68082 0.43917zm-225.15-2.1992-0.6096-0.72 0.72 0.6096c0.67662 0.57286 0.86568 0.8304 0.6096 0.8304-0.06072 0-0.38472-0.324-0.72-0.72zm227.55 0.08c0.31856-0.352 0.65119-0.64 0.73919-0.64s-0.10063 0.288-0.41919 0.64-0.65119 0.64-0.73919 0.64 0.10063-0.288 0.41919-0.64zm-230.74-2.96-0.93987-1.04 1.04 0.93987c0.96943 0.8761 1.1871 1.1401 0.93987 1.1401-0.05507 0-0.52307-0.468-1.04-1.04zm233.14 0.93987c0-0.0551 0.468-0.52307 1.04-1.04l1.04-0.93987-0.93987 1.04c-0.87609 0.96944-1.1401 1.1871-1.1401 0.93987zm-238.73-6.2199-1.7491-1.84 1.84 1.7491c1.7094 1.6249 1.9866 1.9309 1.7491 1.9309-0.05001 0-0.87801-0.828-1.84-1.84zm245.13 0.08c0.95597-0.968 1.8101-1.76 1.8981-1.76s-0.62217 0.792-1.5781 1.76-1.8101 1.76-1.8981 1.76 0.62217-0.792 1.5781-1.76zm-250.42-5.68-0.93987-1.04 1.04 0.93987c0.96943 0.87609 1.1871 1.1401 0.93987 1.1401-0.05507 0-0.52307-0.468-1.04-1.04zm254.9 0.93987c0-0.0551 0.468-0.52307 1.04-1.04l1.04-0.93987-0.93987 1.04c-0.8761 0.96943-1.1401 1.1871-1.1401 0.93987zm-257.62-3.9799-0.77578-0.88 0.88 0.77578c0.82249 0.72508 1.0267 0.98422 0.77578 0.98422-0.05732 0-0.45332-0.396-0.88-0.88zm261.3-0.08c0.31856-0.352 0.6512-0.64 0.7392-0.64s-0.10064 0.288-0.4192 0.64-0.6512 0.64-0.7392 0.64 0.10064-0.288 0.4192-0.64zm-263.24-2.16c-0.39804-0.50754-0.38672-0.51886 0.12082-0.12082 0.308 0.24155 0.56 0.49355 0.56 0.56 0 0.26337-0.26278 0.0939-0.68082-0.43918zm264.68 0.43918c0-0.0665 0.252-0.31845 0.56-0.56 0.50755-0.39804 0.51885-0.38672 0.12083 0.12082-0.41805 0.53304-0.68083 0.70255-0.68083 0.43918zm-266.28-2.3592c-0.39804-0.50754-0.38672-0.51886 0.12082-0.12082 0.53304 0.41804 0.70255 0.68082 0.43918 0.68082-0.06645 0-0.31845-0.252-0.56-0.56zm267.88 0.43918c0-0.0665 0.252-0.31845 0.56-0.56 0.50755-0.39804 0.51885-0.38672 0.12083 0.12082-0.41805 0.53304-0.68083 0.70255-0.68083 0.43918zm-158.88-86.599-24.319-24.32 48.799-48.799 48.799 48.799-24.319 24.32c-13.375 13.376-24.391 24.32-24.48 24.32-0.0889 0-11.105-10.944-24.48-24.32zm-145.41 7.1736c0.01535-0.37278 0.09118-0.4486 0.19333-0.19333 0.09244 0.231 0.08107 0.507-0.02526 0.61333-0.10633 0.10634-0.18196-0.0827-0.16807-0.42zm341.12 0c0.0154-0.37278 0.0912-0.4486 0.19334-0.19333 0.0925 0.231 0.0811 0.507-0.0253 0.61333-0.10633 0.10634-0.18198-0.0827-0.16809-0.42zm-341.44-1.92c0.01535-0.37278 0.09118-0.4486 0.19333-0.19333 0.09244 0.231 0.08107 0.507-0.02526 0.61333-0.10633 0.10634-0.18196-0.0827-0.16807-0.42zm-0.32-1.92c0.01535-0.37278 0.09118-0.4486 0.19333-0.19333 0.09244 0.231 0.08107 0.507-0.02526 0.61333-0.10633 0.10634-0.18196-0.0827-0.16807-0.42zm342.4 0c0.0154-0.37278 0.0912-0.4486 0.19334-0.19333 0.0924 0.231 0.0811 0.507-0.0253 0.61333-0.10633 0.10634-0.18198-0.0827-0.16809-0.42zm-342.72-2.24c0.01535-0.37278 0.09118-0.4486 0.19333-0.19333 0.09244 0.231 0.08107 0.507-0.02526 0.61333-0.10633 0.10634-0.18196-0.0827-0.16807-0.42zm343.04 0c0.0154-0.37278 0.0912-0.4486 0.19334-0.19333 0.0924 0.231 0.0811 0.507-0.0253 0.61333-0.10633 0.10634-0.18198-0.0827-0.16809-0.42zm-343.36-2.24c0.01535-0.37278 0.09118-0.4486 0.19333-0.19333 0.09244 0.231 0.08107 0.507-0.02526 0.61333-0.10633 0.10634-0.18196-0.0827-0.16807-0.42zm343.68 0c0.0154-0.37278 0.0912-0.4486 0.19334-0.19333 0.0924 0.231 0.0811 0.507-0.0253 0.61333-0.10633 0.10634-0.18198-0.0827-0.16809-0.42zm-343.97-2.6933c0-0.44 0.07263-0.62 0.1614-0.4 0.08877 0.22 0.08877 0.58 0 0.8s-0.1614 0.04-0.1614-0.4zm344.32 0c0-0.44 0.0726-0.62 0.16141-0.4 0.0888 0.22 0.0888 0.58 0 0.8s-0.16141 0.04-0.16141-0.4zm-344.63-3.04c0.0065-0.528 0.07824-0.70526 0.15937-0.39391 0.08113 0.31135 0.0758 0.74335-0.01186 0.96s-0.15404-0.0381-0.14752-0.56609zm344.96 0c6e-3 -0.528 0.0782-0.70526 0.15939-0.39391 0.0811 0.31135 0.0758 0.74335-0.0118 0.96s-0.15402-0.0381-0.14752-0.56609zm-345.27-3.68c0-0.616 0.06585-0.868 0.14634-0.56 0.08049 0.308 0.08049 0.812 0 1.12s-0.14634 0.056-0.14634-0.56zm345.6 0c0-0.616 0.0659-0.868 0.14634-0.56 0.0805 0.308 0.0805 0.812 0 1.12s-0.14634 0.056-0.14634-0.56zm-345.89-5.76c0-1.144 0.05808-1.612 0.12906-1.04 0.07098 0.572 0.07098 1.508 0 2.08-0.07099 0.572-0.12906 0.104-0.12906-1.04zm346.24 0c0-1.144 0.0581-1.612 0.12906-1.04 0.071 0.572 0.071 1.508 0 2.08s-0.12906 0.104-0.12906-1.04zm-346.24-14.4c0-1.144 0.05808-1.612 0.12906-1.04 0.07098 0.572 0.07098 1.508 0 2.08-0.07099 0.572-0.12906 0.104-0.12906-1.04zm346.24 0c0-1.144 0.0581-1.612 0.12906-1.04 0.071 0.572 0.071 1.508 0 2.08s-0.12906 0.104-0.12906-1.04zm-345.95-5.76c0-0.616 0.06585-0.868 0.14634-0.56 0.08049 0.308 0.08049 0.812 0 1.12s-0.14634 0.056-0.14634-0.56zm345.6 0c0-0.616 0.0659-0.868 0.14634-0.56 0.0805 0.308 0.0805 0.812 0 1.12s-0.14634 0.056-0.14634-0.56zm-0.33187-3.68c6e-3 -0.528 0.0782-0.70526 0.15939-0.39391 0.0811 0.31135 0.0758 0.74335-0.0118 0.96s-0.15402-0.0381-0.14752-0.56609zm-344.97-0.16c0-0.44 0.07263-0.62 0.1614-0.4 0.08877 0.22 0.08877 0.58 0 0.8s-0.1614 0.04-0.1614-0.4zm0.32-2.88c0-0.44 0.07263-0.62 0.1614-0.4 0.08877 0.22 0.08877 0.58 0 0.8s-0.1614 0.04-0.1614-0.4zm344.32 0c0-0.44 0.0726-0.62 0.16141-0.4 0.0888 0.22 0.0888 0.58 0 0.8s-0.16141 0.04-0.16141-0.4zm-344.03-2.7467c0.01535-0.37278 0.09118-0.4486 0.19333-0.19333 0.09244 0.231 0.08107 0.507-0.02526 0.61333-0.10633 0.10634-0.18196-0.0827-0.16807-0.42zm343.68 0c0.0154-0.37278 0.0912-0.4486 0.19334-0.19333 0.0924 0.231 0.0811 0.507-0.0253 0.61333-0.10633 0.10634-0.18198-0.0827-0.16809-0.42zm-343.36-2.24c0.01535-0.37278 0.09118-0.4486 0.19333-0.19333 0.09244 0.231 0.08107 0.507-0.02526 0.61333-0.10633 0.10634-0.18196-0.0827-0.16807-0.42zm343.04 0c0.0154-0.37278 0.0912-0.4486 0.19334-0.19333 0.0924 0.231 0.0811 0.507-0.0253 0.61333-0.10633 0.10634-0.18198-0.0827-0.16809-0.42zm-342.72-2.24c0.01535-0.37278 0.09118-0.4486 0.19333-0.19333 0.09244 0.231 0.08107 0.507-0.02526 0.61333-0.10633 0.10634-0.18196-0.0827-0.16807-0.42zm342.4 0c0.0154-0.37278 0.0912-0.4486 0.19334-0.19333 0.0924 0.231 0.0811 0.507-0.0253 0.61333-0.10633 0.10634-0.18198-0.0827-0.16809-0.42zm-342.08-1.92c0.01535-0.37278 0.09118-0.4486 0.19333-0.19333 0.09244 0.231 0.08107 0.507-0.02526 0.61333-0.10633 0.10634-0.18196-0.0827-0.16807-0.42zm341.76 0c0.0154-0.37278 0.0912-0.4486 0.19334-0.19333 0.0925 0.231 0.0811 0.507-0.0253 0.61333-0.10633 0.10634-0.18198-0.0827-0.16809-0.42zm-341.44-1.92c0.01535-0.37278 0.09118-0.4486 0.19333-0.19333 0.09244 0.231 0.08107 0.507-0.02526 0.61333-0.10633 0.10634-0.18196-0.0827-0.16807-0.42zm341.12 0c0.0154-0.37278 0.0912-0.4486 0.19334-0.19333 0.0925 0.231 0.0811 0.507-0.0253 0.61333-0.10633 0.10634-0.18198-0.0827-0.16809-0.42zm627.65-14.853c0.31856-0.352 0.6512-0.64 0.7392-0.64s-0.10064 0.288-0.4192 0.64-0.6512 0.64-0.7392 0.64 0.10064-0.288 0.4192-0.64zm-932.64-63.801c0-0.06645 0.252-0.31845 0.56-0.56 0.50754-0.39804 0.51886-0.38672 0.12082 0.12082-0.41804 0.53304-0.68082 0.70255-0.68082 0.43918zm268.44-0.43918c-0.39802-0.50754-0.38672-0.51886 0.12083-0.12082 0.53302 0.41804 0.70256 0.68082 0.43917 0.68082-0.0664 0-0.31843-0.252-0.56-0.56zm-266.84-1.4808c0-0.06645 0.252-0.31845 0.56-0.56 0.50754-0.39804 0.51886-0.38672 0.12082 0.12082-0.41804 0.53304-0.68082 0.70255-0.68082 0.43918zm265.24-0.43918c-0.39802-0.50754-0.38672-0.51886 0.12083-0.12082 0.308 0.24155 0.56 0.49355 0.56 0.56 0 0.26337-0.26278 0.09386-0.68083-0.43918zm-1.7496-2.08-0.6096-0.72 0.72 0.6096c0.67661 0.57287 0.86566 0.8304 0.6096 0.8304-0.0607 0-0.38474-0.324-0.72-0.72zm-261.09-0.24c0.31856-0.352 0.65119-0.64 0.73919-0.64s-0.10064 0.288-0.41919 0.64-0.65119 0.64-0.73919 0.64 0.10064-0.288 0.41919-0.64zm1.76-2.0201c0-0.05507 0.468-0.52307 1.04-1.04l1.04-0.93987-0.93987 1.04c-0.87609 0.96943-1.1401 1.1871-1.1401 0.93987zm256.46-0.93987-0.93987-1.04 1.04 0.93987c0.572 0.51693 1.04 0.98493 1.04 1.04 0 0.24722-0.26403 0.02957-1.1401-0.93987zm-250.39-5.44c1.3261-1.4129 1.6134-1.6669 1.6134-1.4266 0 0.05136-0.684 0.73536-1.52 1.52l-1.52 1.4266zm245.13-0.08c-0.77729-0.792-1.3412-1.44-1.2532-1.44s0.79596 0.648 1.5732 1.44 1.3412 1.44 1.2532 1.44-0.79596-0.648-1.5732-1.44zm-240.32-4.4201c0-0.05507 0.468-0.52307 1.04-1.04l1.04-0.93987-0.93987 1.04c-0.87609 0.96943-1.1401 1.1871-1.1401 0.93987zm234.7-0.93987-0.93987-1.04 1.04 0.93987c0.572 0.51693 1.04 0.98493 1.04 1.04 0 0.24722-0.26404 0.02957-1.1401-0.93987zm-231.02-2.48c0.31856-0.352 0.65119-0.64 0.73919-0.64s-0.10064 0.288-0.41919 0.64-0.65119 0.64-0.73919 0.64 0.10064-0.288 0.41919-0.64zm227.81-0.4-0.6096-0.72 0.72 0.6096c0.67662 0.57287 0.86568 0.8304 0.6096 0.8304-0.0607 0-0.38473-0.324-0.72-0.72zm-225.73-1.3208c0-0.06645 0.252-0.31845 0.56-0.56 0.50754-0.39804 0.51886-0.38672 0.12082 0.12082-0.41804 0.53304-0.68082 0.70255-0.68082 0.43918zm223.64-0.43918c-0.39804-0.50754-0.38672-0.51886 0.12082-0.12082 0.53304 0.41804 0.70255 0.68082 0.43918 0.68082-0.0664 0-0.31845-0.252-0.56-0.56zm-221.72-1.1608c0-0.06645 0.252-0.31845 0.56-0.56 0.50754-0.39804 0.51886-0.38672 0.12082 0.12082-0.41804 0.53304-0.68082 0.70255-0.68082 0.43918zm219.8-0.43918c-0.39804-0.50754-0.38672-0.51886 0.12082-0.12082 0.53304 0.41804 0.70255 0.68082 0.43918 0.68082-0.0664 0-0.31845-0.252-0.56-0.56zm-140.5-36.459c0.231-0.09244 0.507-0.08107 0.61333 0.02526 0.10634 0.10633-0.0827 0.18196-0.42 0.16807-0.37278-0.01535-0.4486-0.09118-0.19333-0.19333zm61.44 0c0.231-0.09244 0.507-0.08107 0.61333 0.02526 0.10634 0.10633-0.0827 0.18196-0.42 0.16807-0.37278-0.01535-0.4486-0.09118-0.19333-0.19333zm-1.92-0.32c0.231-0.09244 0.507-0.08107 0.61333 0.02526 0.10634 0.10633-0.0827 0.18196-0.42 0.16807-0.37278-0.01535-0.4486-0.09118-0.19333-0.19333zm-55.68-0.32c0.231-0.09244 0.507-0.08107 0.61333 0.02526 0.10634 0.10633-0.0827 0.18196-0.42 0.16807-0.37278-0.01535-0.4486-0.09118-0.19333-0.19333zm53.76 0c0.231-0.09244 0.507-0.08107 0.61333 0.02526 0.10634 0.10633-0.0827 0.18196-0.42 0.16807-0.37278-0.01535-0.4486-0.09118-0.19333-0.19333zm-51.86-0.31333c0.22-0.08877 0.58-0.08877 0.8 0s0.04 0.1614-0.4 0.1614-0.62-0.07263-0.4-0.1614zm49.6 0c0.22-0.08877 0.58-0.08877 0.8 0s0.04 0.1614-0.4 0.1614-0.62-0.07263-0.4-0.1614zm-47.02-0.32666c0.231-0.09244 0.507-0.08107 0.61333 0.02526 0.10634 0.10633-0.0827 0.18197-0.42 0.16807-0.37278-0.01535-0.4486-0.09118-0.19333-0.19333zm44.8 0c0.231-0.09244 0.507-0.08107 0.61333 0.02526 0.10634 0.10633-0.0827 0.18197-0.42 0.16807-0.37278-0.01535-0.4486-0.09118-0.19333-0.19333zm-42.26-0.31334c0.22-0.08877 0.58-0.08877 0.8 0s0.04 0.1614-0.4 0.1614-0.62-0.07263-0.4-0.1614zm39.36 0c0.22-0.08877 0.58-0.08877 0.8 0s0.04 0.1614-0.4 0.1614-0.62-0.07263-0.4-0.1614zm-36.314-0.32983c0.31135-0.08113 0.74335-0.0758 0.96 0.01186 0.21665 0.08765-0.0381 0.15404-0.56609 0.14752-0.528-0.0065-0.70526-0.07824-0.39391-0.15937zm33.28 0c0.31135-0.08113 0.74335-0.0758 0.96 0.01186 0.21665 0.08765-0.0381 0.15404-0.56609 0.14752-0.528-0.0065-0.70526-0.07824-0.39391-0.15937zm-29.602-0.32457c0.39805-0.07654 0.97405-0.07363 1.28 0.0065 0.30595 0.08009-0.0197 0.14272-0.72373 0.13917-0.704-0.0036-0.95432-0.06908-0.55627-0.14562zm25.6 0c0.39805-0.07654 0.97405-0.07363 1.28 0.0065 0.30595 0.08009-0.0197 0.14272-0.72373 0.13917-0.704-0.0036-0.95432-0.06908-0.55627-0.14562zm-20.484-0.32516c0.572-0.07098 1.508-0.07098 2.08 0 0.572 0.07099 0.104 0.12906-1.04 0.12906s-1.612-0.05808-1.04-0.12906zm14.4 0c0.572-0.07098 1.508-0.07098 2.08 0 0.572 0.07099 0.104 0.12906-1.04 0.12906s-1.612-0.05808-1.04-0.12906z" fill="#76cff9"/>
  <path d="m153.79 295.21c-30.639-2.9263-54.758-27.237-57.595-58.053-0.43694-4.7449-0.43622-81.346 9.6e-4 -86.08 1.44-15.598 8.2504-29.815 19.379-40.454 10.719-10.247 23.915-16.256 38.696-17.621 4.884-0.45089 81.351-0.43534 86.24 0.01754 30.879 2.8601 55.065 27.105 57.915 58.057 0.43624 4.7373 0.43624 81.343 0 86.08-1.0743 11.666-5.1338 22.522-11.995 32.08-2.9445 4.1013-9.6919 10.84-13.92 13.903-9.5772 6.9365-20.413 11.011-32.16 12.093-4.2134 0.38801-82.475 0.36783-86.56-0.0223zm45.55-44.001c1.0925-0.2831 2.602-0.98374 3.4062-1.581 1.7359-1.2892 49.543-49.168 50.5-50.576 0.3683-0.54173 0.91717-1.9704 1.2197-3.1749 0.47466-1.8896 0.49539-2.4566 0.15115-4.135-0.21943-1.0698-0.62611-2.4491-0.90376-3.0651-0.55019-1.2207-48.474-49.504-50.979-51.361-0.8952-0.66372-2.3032-1.2924-3.6549-1.6319-1.8988-0.47695-2.4641-0.49787-4.1438-0.15336-1.0698 0.21943-2.4491 0.62611-3.0651 0.90376-1.2207 0.55019-49.504 48.474-51.361 50.979-0.66372 0.8952-1.2924 2.3032-1.6319 3.6549-0.47695 1.8988-0.49787 2.4641-0.15336 4.1438 0.21943 1.0698 0.62611 2.4491 0.90376 3.0651 0.54954 1.2192 48.473 49.503 50.974 51.358 1.437 1.0654 4.0968 1.997 5.8623 2.0532 0.5026 0.016 1.7967-0.1997 2.8758-0.47933zm-27.31-33.252-24.479-24.48 49.119-49.119 49.119 49.119-24.479 24.48c-13.463 13.464-24.551 24.48-24.64 24.48-0.0889 0-11.177-11.016-24.64-24.48zm49.121-0.16 24.319-24.32-48.799-48.799-48.799 48.799 24.319 24.32c13.375 13.376 24.391 24.32 24.48 24.32 0.0889 0 11.105-10.944 24.48-24.32z" fill="#1aaef4"/>
  <path d="m189.79 367.34c-3.9309-0.14778-12.971-1.0203-17.6-1.6987-28.432-4.1668-55.083-15.255-78.4-32.62-12.337-9.1875-24.791-21.53-34.197-33.889-39.36-51.722-46.416-121.73-18.147-180.07 11.898-24.553 29.627-46.26 51.177-62.659 38.142-29.026 86.39-40.851 134.01-32.844 26.915 4.526 52.256 15.402 74.522 31.984 12.797 9.5301 25.526 22.26 35.056 35.056 19.363 26 30.57 55.243 33.788 88.16 0.75507 7.725 0.75235 23.363-5e-3 31.04-2.1609 21.891-7.4498 41.033-16.495 59.698-12.136 25.043-30.336 47.129-52.344 63.519-32.326 24.073-70.548 35.853-111.36 34.318zm55.2-62.93c10.37-2.096 15.94-3.8083 21.92-6.738 9.6885-4.7467 19.021-12.194 25.098-20.027 7.4706-9.6296 11.496-17.915 14.069-28.96 2.2801-9.7869 2.1127-5.464 2.1127-54.56s0.16739-44.773-2.1127-54.56c-2.5731-11.045-6.5984-19.33-14.069-28.96-7.174-9.2473-18.596-17.702-30.057-22.25-3.3441-1.3268-12.034-3.6003-17.281-4.5208-3.1549-0.55353-6.0454-0.58951-47.36-0.58951-49.53 0-45.237-0.1943-56.161 2.5417-10.431 2.6126-18.024 6.3982-27.359 13.64-9.4207 7.3086-18.317 19.461-22.526 30.77-1.2949 3.4794-3.3421 11.479-4.2417 16.574-0.55708 3.1554-0.59216 5.9609-0.59216 47.354 0 49.346-0.18224 45.164 2.4301 55.763 2.6213 10.635 6.426 18.315 13.752 27.757 7.3139 9.4276 19.46 18.317 30.789 22.533 4.8608 1.8091 14.499 4.0891 19.618 4.6407 1.3922 0.15003 22.043 0.24314 45.891 0.20692 39.557-0.0601 43.599-0.11409 46.08-0.61565zm-90.316-9.0716c0.39805-0.0765 0.97405-0.0736 1.28 6e-3 0.30595 0.0801-0.0197 0.14272-0.72373 0.13917-0.704-4e-3 -0.95432-0.0691-0.55627-0.14563zm84.16 0c0.39805-0.0765 0.97405-0.0736 1.28 6e-3 0.30595 0.0801-0.0197 0.14272-0.72373 0.13917-0.704-4e-3 -0.95432-0.0691-0.55627-0.14563zm-87.364-0.30561c0.22-0.0888 0.58-0.0888 0.8 0s0.04 0.16141-0.4 0.16141-0.62-0.0726-0.4-0.16141zm90.88 0c0.22-0.0888 0.58-0.0888 0.8 0s0.04 0.16141-0.4 0.16141-0.62-0.0726-0.4-0.16141zm-93.1-0.32667c0.231-0.0924 0.507-0.0811 0.61333 0.0253 0.10634 0.10634-0.0827 0.18197-0.42 0.16807-0.37278-0.0154-0.4486-0.0912-0.19333-0.19333zm95.68 0c0.231-0.0924 0.507-0.0811 0.61333 0.0253 0.10634 0.10634-0.0827 0.18197-0.42 0.16807-0.37278-0.0154-0.4486-0.0912-0.19333-0.19333zm-97.28-0.32c0.231-0.0924 0.507-0.0811 0.61333 0.0253 0.10634 0.10634-0.0827 0.18197-0.42 0.16807-0.37278-0.0154-0.4486-0.0912-0.19333-0.19333zm98.88 0c0.231-0.0924 0.507-0.0811 0.61333 0.0253 0.10634 0.10634-0.0827 0.18197-0.42 0.16807-0.37278-0.0154-0.4486-0.0912-0.19333-0.19333zm-128.45-14.261-0.6096-0.72 0.72 0.6096c0.67662 0.57287 0.86568 0.8304 0.6096 0.8304-0.0607 0-0.38473-0.324-0.72-0.72zm158.11 0.08c0.31856-0.352 0.65119-0.64 0.73919-0.64s-0.10063 0.288-0.41919 0.64-0.65119 0.64-0.73919 0.64 0.10063-0.288 0.41919-0.64zm-161.77-3.44-1.7491-1.84 1.84 1.7491c1.012 0.96199 1.84 1.79 1.84 1.84 0 0.23752-0.30599-0.0396-1.9309-1.7491zm165.45 0.08c0.95597-0.968 1.8101-1.76 1.8981-1.76s-0.62217 0.792-1.5781 1.76-1.8101 1.76-1.8981 1.76 0.62217-0.792 1.5781-1.76zm-169-3.92c-0.39804-0.50754-0.38672-0.51886 0.12082-0.12082 0.308 0.24155 0.56 0.49355 0.56 0.56 0 0.26337-0.26278 0.0939-0.68082-0.43918zm172.2 0.43918c0-0.0664 0.252-0.31845 0.56-0.56 0.50754-0.39804 0.51886-0.38672 0.12082 0.12082-0.41804 0.53304-0.68082 0.70255-0.68082 0.43918zm-89.268-22.171c-0.96166-0.26066-2.4017-0.95823-3.2-1.5502-2.5015-1.8547-50.425-50.138-50.974-51.358-0.27765-0.616-0.68433-1.9953-0.90376-3.0651-0.34451-1.6797-0.32359-2.2451 0.15336-4.1438 0.33954-1.3517 0.96822-2.7597 1.6319-3.6549 1.8569-2.5045 50.14-50.429 51.361-50.979 0.616-0.27765 1.9953-0.68433 3.0651-0.90376 1.6797-0.34451 2.2451-0.32359 4.1438 0.15336 1.3517 0.33954 2.7597 0.96822 3.6549 1.6319 2.5045 1.8569 50.429 50.14 50.979 51.361 0.27765 0.616 0.68433 1.9953 0.90376 3.0651 0.34424 1.6784 0.32351 2.2454-0.15115 4.135-0.30255 1.2044-0.85142 2.6332-1.2197 3.1749-0.95717 1.4079-48.764 49.286-50.5 50.576-1.4623 1.086-4.5965 2.1139-6.282 2.0603-0.5026-0.016-1.7006-0.24234-2.6623-0.503zm27.509-33.228 24.479-24.48-49.119-49.119-49.119 49.119 24.479 24.48c13.463 13.464 24.551 24.48 24.64 24.48 0.0889 0 11.177-11.016 24.64-24.48zm-124.45 25.574c0.01536-0.37278 0.09118-0.4486 0.19333-0.19333 0.09244 0.231 0.08107 0.507-0.02525 0.61333-0.10633 0.10634-0.18196-0.0827-0.16807-0.42zm200.64 0c0.0154-0.37278 0.0912-0.4486 0.19334-0.19333 0.0924 0.231 0.0811 0.507-0.0252 0.61333-0.10634 0.10634-0.18197-0.0827-0.16807-0.42zm0.32-1.6c0.0154-0.37278 0.0912-0.4486 0.19334-0.19333 0.0924 0.231 0.0811 0.507-0.0252 0.61333-0.10634 0.10634-0.18197-0.0827-0.16807-0.42zm-201.57-2.3733c0-0.44 0.07263-0.62 0.1614-0.4 0.08877 0.22 0.08877 0.58 0 0.8s-0.1614 0.04-0.1614-0.4zm201.92 0c0-0.44 0.0726-0.62 0.16141-0.4 0.0888 0.22 0.0888 0.58 0 0.8s-0.16141 0.04-0.16141-0.4zm-202.21-3.36c0.0036-0.704 0.06908-0.95432 0.14562-0.55627 0.07654 0.39805 0.07363 0.97405-0.0065 1.28-0.08009 0.30595-0.14272-0.0197-0.13917-0.72373zm202.56 0c4e-3 -0.704 0.0691-0.95432 0.14562-0.55627 0.0765 0.39805 0.0736 0.97405-6e-3 1.28-0.0801 0.30595-0.14272-0.0197-0.13917-0.72373zm-202.56-84.16c0.0036-0.704 0.06908-0.95432 0.14562-0.55627 0.07654 0.39805 0.07363 0.97405-0.0065 1.28-0.08009 0.30595-0.14272-0.0197-0.13917-0.72373zm202.56 0c4e-3 -0.704 0.0691-0.95432 0.14562-0.55627 0.0765 0.39805 0.0736 0.97405-6e-3 1.28-0.0801 0.30595-0.14272-0.0197-0.13917-0.72373zm-202.27-3.36c0-0.44 0.07263-0.62 0.1614-0.4 0.08877 0.22 0.08877 0.58 0 0.8s-0.1614 0.04-0.1614-0.4zm201.92 0c0-0.44 0.0726-0.62 0.16141-0.4 0.0888 0.22 0.0888 0.58 0 0.8s-0.16141 0.04-0.16141-0.4zm-0.34526-2.4267c0.0154-0.37278 0.0912-0.4486 0.19334-0.19333 0.0924 0.231 0.0811 0.507-0.0252 0.61333-0.10634 0.10634-0.18197-0.0827-0.16807-0.42zm-200.96-1.6c0.01536-0.37278 0.09118-0.4486 0.19333-0.19333 0.09244 0.231 0.08107 0.507-0.02525 0.61333-0.10633 0.10634-0.18196-0.0827-0.16807-0.42zm200.64 0c0.0154-0.37278 0.0912-0.4486 0.19334-0.19333 0.0924 0.231 0.0811 0.507-0.0252 0.61333-0.10634 0.10634-0.18197-0.0827-0.16807-0.42zm-200.32-1.6c0.01536-0.37278 0.09118-0.4486 0.19333-0.19333 0.09244 0.231 0.08107 0.507-0.02525 0.61333-0.10633 0.10634-0.18196-0.0827-0.16807-0.42zm13.415-27.454c0-0.0665 0.252-0.31845 0.56-0.56 0.50754-0.39804 0.51886-0.38672 0.12082 0.12082-0.41804 0.53304-0.68082 0.70255-0.68082 0.43918zm172.76-0.43918c-0.39804-0.50754-0.38672-0.51886 0.12082-0.12082 0.308 0.24155 0.56 0.49355 0.56 0.56 0 0.26337-0.26278 0.0939-0.68082-0.43918zm-168.92-3.76c0.95597-0.968 1.8101-1.76 1.8981-1.76s-0.62217 0.792-1.5781 1.76-1.8101 1.76-1.8981 1.76 0.62217-0.792 1.5781-1.76zm165.43-0.08-1.7491-1.84 1.84 1.7491c1.012 0.96199 1.84 1.79 1.84 1.84 0 0.23752-0.30599-0.0396-1.9309-1.7491zm-161.75-3.28c0.31856-0.352 0.65119-0.64 0.73919-0.64s-0.10063 0.288-0.41919 0.64-0.65119 0.64-0.73919 0.64 0.10063-0.288 0.41919-0.64zm158.05-0.08-0.6096-0.72 0.72 0.6096c0.396 0.33527 0.72 0.65927 0.72 0.72 0 0.25608-0.25753 0.067-0.8304-0.6096zm-130.11-13.899c0.231-0.09244 0.507-0.08107 0.61333 0.02525 0.10634 0.10633-0.0827 0.18197-0.42 0.16807-0.37278-0.01536-0.4486-0.09118-0.19333-0.19333zm102.08 0c0.231-0.09244 0.507-0.08107 0.61333 0.02525 0.10634 0.10633-0.0827 0.18197-0.42 0.16807-0.37278-0.01536-0.4486-0.09118-0.19333-0.19333zm-100.48-0.32c0.231-0.09244 0.507-0.08107 0.61333 0.02525 0.10634 0.10633-0.0827 0.18196-0.42 0.16807-0.37278-0.01536-0.4486-0.09118-0.19333-0.19333zm98.88 0c0.231-0.09244 0.507-0.08107 0.61333 0.02525 0.10634 0.10633-0.0827 0.18196-0.42 0.16807-0.37278-0.01536-0.4486-0.09118-0.19333-0.19333zm-97.28-0.32c0.231-0.09244 0.507-0.08107 0.61333 0.02525 0.10634 0.10633-0.0827 0.18196-0.42 0.16807-0.37278-0.01536-0.4486-0.09118-0.19333-0.19333zm95.68 0c0.231-0.09244 0.507-0.08107 0.61333 0.02525 0.10634 0.10633-0.0827 0.18196-0.42 0.16807-0.37278-0.01536-0.4486-0.09118-0.19333-0.19333zm-93.46-0.31334c0.22-0.08877 0.58-0.08877 0.8 0s0.04 0.1614-0.4 0.1614-0.62-0.07263-0.4-0.1614zm90.88 0c0.22-0.08877 0.58-0.08877 0.8 0s0.04 0.1614-0.4 0.1614-0.62-0.07263-0.4-0.1614zm-87.676-0.33439c0.39805-0.07654 0.97405-0.07363 1.28 0.0065 0.30595 0.08009-0.0197 0.14272-0.72373 0.13917-0.704-0.0036-0.95432-0.06909-0.55627-0.14562zm84.16 0c0.39805-0.07654 0.97405-0.07363 1.28 0.0065 0.30595 0.08009-0.0197 0.14272-0.72373 0.13917-0.704-0.0036-0.95432-0.06909-0.55627-0.14562z" fill="#1795d0"/>
  <path d="m899.04 288.6-0.77578-0.88 0.88 0.77578c0.8225 0.72508 1.0268 0.98422 0.77578 0.98422-0.0573 0-0.45332-0.396-0.88-0.88zm14.744 0.11918c0-0.0664 0.252-0.31845 0.56-0.56 0.50755-0.39804 0.51885-0.38672 0.12083 0.12082-0.41805 0.53304-0.68083 0.70255-0.68083 0.43918zm-16.935-8.7058c0.0154-0.37278 0.0912-0.4486 0.19334-0.19333 0.0924 0.231 0.0811 0.507-0.0253 0.61333-0.10633 0.10634-0.18198-0.0827-0.16809-0.42zm-330.03-20.205c0.572-0.071 1.508-0.071 2.08 0s0.104 0.12907-1.04 0.12907-1.612-0.0581-1.04-0.12907zm58.4 2e-3c0.484-0.0733 1.276-0.0733 1.76 0s0.088 0.13331-0.88 0.13331-1.364-0.06-0.88-0.13331zm110.57-3e-3c0.57517-0.0712 1.4392-0.0697 1.92 3e-3 0.48086 0.073 0.0102 0.13128-1.0457 0.12949-1.056-2e-3 -1.4494-0.0615-0.87427-0.13276zm-173.43-0.306c0.23101-0.0924 0.50701-0.0811 0.61334 0.0253 0.10634 0.10633-0.0827 0.18196-0.42 0.16807-0.3728-0.0154-0.4486-0.0912-0.19334-0.19333zm10.54 7e-3c0.22-0.0888 0.58-0.0888 0.8 0s0.04 0.1614-0.4 0.1614-0.62-0.0726-0.4-0.1614zm48.02-7e-3c0.23101-0.0924 0.50701-0.0811 0.61334 0.0253 0.10634 0.10633-0.0827 0.18196-0.42 0.16807-0.3728-0.0154-0.4486-0.0912-0.19334-0.19333zm9.6 0c0.23101-0.0924 0.50701-0.0811 0.61334 0.0253 0.10634 0.10633-0.0827 0.18196-0.42 0.16807-0.3728-0.0154-0.4486-0.0912-0.19334-0.19333zm100.31-3e-3c0.31136-0.0811 0.74336-0.0758 0.96 0.0119 0.21667 0.0877-0.0381 0.15404-0.56608 0.14752-0.528-7e-3 -0.70525-0.0782-0.39392-0.15937zm10.074 0.01c0.22-0.0888 0.58-0.0888 0.8 0s0.04 0.16141-0.4 0.16141-0.62-0.0726-0.4-0.16141zm294.24-0.0177c0.4864-0.0736 1.2064-0.0716 1.6 4e-3 0.3936 0.076 0 0.13613-0.8844 0.13373-0.88-3e-3 -1.202-0.0645-0.7156-0.1381zm8.7993 3e-3c0.3981-0.0765 0.9741-0.0736 1.28 6e-3 0.306 0.0801-0.02 0.14272-0.7237 0.13917-0.704-4e-3 -0.9543-0.0691-0.5563-0.14563zm96.161-3e-3c0.4864-0.0736 1.2064-0.0716 1.6 4e-3 0.3936 0.076 0 0.13613-0.8844 0.13373-0.88-3e-3 -1.202-0.0645-0.7156-0.1381zm9.4356 4e-3c0.396-0.0763 1.044-0.0763 1.44 0s0.072 0.13868-0.72 0.13868-1.116-0.0624-0.72-0.13868zm105.12-4e-3c0.4864-0.0736 1.2064-0.0716 1.6 4e-3 0.3936 0.076 0 0.13613-0.8844 0.13373-0.88-3e-3 -1.202-0.0645-0.7156-0.1381zm9.4356 4e-3c0.396-0.0763 1.044-0.0763 1.44 0s0.072 0.13868-0.72 0.13868-1.116-0.0624-0.72-0.13868zm-823.83-0.31592c0.31136-0.0811 0.74336-0.0758 0.96 0.0119 0.21667 0.0877-0.0381 0.15404-0.56608 0.14752-0.528-7e-3 -0.70525-0.0782-0.39392-0.15937zm3.2 0c0.31136-0.0811 0.74336-0.0758 0.96 0.0119 0.21667 0.0877-0.0381 0.15404-0.56608 0.14752-0.528-7e-3 -0.70525-0.0782-0.39392-0.15937zm116.65 3e-3c0.23101-0.0924 0.50701-0.0811 0.61334 0.0253 0.10634 0.10633-0.0827 0.18196-0.42 0.16807-0.3728-0.0154-0.4486-0.0912-0.19334-0.19333zm15.36 0c0.23101-0.0924 0.50701-0.0811 0.61334 0.0253 0.10634 0.10633-0.0827 0.18196-0.42 0.16807-0.3728-0.0154-0.4486-0.0912-0.19334-0.19333zm43.2 0c0.23101-0.0924 0.50701-0.0811 0.61334 0.0253 0.10634 0.10633-0.0827 0.18196-0.42 0.16807-0.3728-0.0154-0.4486-0.0912-0.19334-0.19333zm109.76 0c0.23101-0.0924 0.50701-0.0811 0.61334 0.0253 0.10634 0.10633-0.0827 0.18196-0.42 0.16807-0.3728-0.0154-0.4486-0.0912-0.19334-0.19333zm116.62-2e-3c0.308-0.0805 0.812-0.0805 1.12 0s0.056 0.14635-0.56 0.14635-0.868-0.0659-0.56-0.14635zm2.56 0c0.308-0.0805 0.812-0.0805 1.12 0s0.056 0.14635-0.56 0.14635-0.868-0.0659-0.56-0.14635zm183.52 9e-3c0.22-0.0888 0.58-0.0888 0.8 0s0.04 0.16141-0.4 0.16141-0.62-0.0726-0.4-0.16141zm16.96 0c0.22-0.0888 0.58-0.0888 0.8 0s0.04 0.16141-0.4 0.16141-0.62-0.0726-0.4-0.16141zm87.68 0c0.22-0.0888 0.58-0.0888 0.8 0s0.04 0.16141-0.4 0.16141-0.62-0.0726-0.4-0.16141zm18.56 0c0.22-0.0888 0.58-0.0888 0.8 0s0.04 0.16141-0.4 0.16141-0.62-0.0726-0.4-0.16141zm96 0c0.22-0.0888 0.58-0.0888 0.8 0s0.04 0.16141-0.4 0.16141-0.62-0.0726-0.4-0.16141zm18.56 0c0.22-0.0888 0.58-0.0888 0.8 0s0.04 0.16141-0.4 0.16141-0.62-0.0726-0.4-0.16141zm-240.3-0.32666c0.231-0.0924 0.507-0.0811 0.6133 0.0252 0.1064 0.10633-0.083 0.18196-0.42 0.16807-0.3728-0.0154-0.4486-0.0912-0.1933-0.19334zm22.08 0c0.231-0.0924 0.507-0.0811 0.6133 0.0252 0.1064 0.10633-0.083 0.18196-0.42 0.16807-0.3728-0.0154-0.4486-0.0912-0.1933-0.19334zm82.22 7e-3c0.22-0.0888 0.58-0.0888 0.8 0s0.04 0.16141-0.4 0.16141-0.62-0.0726-0.4-0.16141zm24.02-7e-3c0.231-0.0924 0.507-0.0811 0.6133 0.0252 0.1064 0.10633-0.083 0.18196-0.42 0.16807-0.3728-0.0154-0.4486-0.0912-0.1933-0.19334zm90.54 7e-3c0.22-0.0888 0.58-0.0888 0.8 0s0.04 0.16141-0.4 0.16141-0.62-0.0726-0.4-0.16141zm24.02-7e-3c0.231-0.0924 0.507-0.0811 0.6133 0.0252 0.1064 0.10633-0.083 0.18196-0.42 0.16807-0.3728-0.0154-0.4486-0.0912-0.1933-0.19334zm-140.8-0.32c0.231-0.0924 0.507-0.0811 0.6133 0.0252 0.1064 0.10633-0.083 0.18196-0.42 0.16807-0.3728-0.0154-0.4486-0.0912-0.1933-0.19334zm114.56 0c0.231-0.0924 0.507-0.0811 0.6133 0.0252 0.1064 0.10633-0.083 0.18196-0.42 0.16807-0.3728-0.0154-0.4486-0.0912-0.1933-0.19334zm-220.48-0.32c0.231-0.0924 0.507-0.0811 0.6133 0.0252 0.1064 0.10633-0.083 0.18196-0.42 0.16807-0.3728-0.0154-0.4486-0.0912-0.1933-0.19334zm104 0c0.231-0.0924 0.507-0.0811 0.6133 0.0252 0.1064 0.10633-0.083 0.18196-0.42 0.16807-0.3728-0.0154-0.4486-0.0912-0.1933-0.19334zm32 0c0.231-0.0924 0.507-0.0811 0.6133 0.0252 0.1064 0.10633-0.083 0.18196-0.42 0.16807-0.3728-0.0154-0.4486-0.0912-0.1933-0.19334zm82.56 0c0.231-0.0924 0.507-0.0811 0.6133 0.0252 0.1064 0.10633-0.083 0.18196-0.42 0.16807-0.3728-0.0154-0.4486-0.0912-0.1933-0.19334zm32 0c0.231-0.0924 0.507-0.0811 0.6133 0.0252 0.1064 0.10633-0.083 0.18196-0.42 0.16807-0.3728-0.0154-0.4486-0.0912-0.1933-0.19334zm-694.98-1.2222c0.41334-0.44 0.82355-0.8 0.91155-0.8s-0.17821 0.36-0.59155 0.8-0.82355 0.8-0.91155 0.8 0.17821-0.36 0.59155-0.8zm73.41-0.24-0.6096-0.72 0.72 0.6096c0.67661 0.57287 0.86566 0.8304 0.6096 0.8304-0.0607 0-0.38474-0.324-0.72-0.72zm-220.16-0.32-0.6096-0.72 0.72 0.6096c0.67661 0.57287 0.86566 0.8304 0.6096 0.8304-0.0607 0-0.38474-0.324-0.72-0.72zm343.19 0.16c-0.39802-0.50754-0.38672-0.51886 0.12083-0.12082 0.53302 0.41804 0.70256 0.68082 0.43917 0.68082-0.0664 0-0.31843-0.252-0.56-0.56zm61.44-0.96c-0.39802-0.50754-0.38672-0.51886 0.12083-0.12082 0.53302 0.41804 0.70256 0.68082 0.43917 0.68082-0.0664 0-0.31843-0.252-0.56-0.56zm-291.8-3.12c-0.77728-0.792-1.3412-1.44-1.2532-1.44s0.79597 0.648 1.5732 1.44 1.3412 1.44 1.2532 1.44-0.79597-0.648-1.5732-1.44zm99.36-0.16c0.31856-0.352 0.6512-0.64 0.7392-0.64s-0.10064 0.288-0.4192 0.64-0.6512 0.64-0.7392 0.64 0.10064-0.288 0.4192-0.64zm65.585-1.04-1.2649-1.36 1.36 1.2649c1.2648 1.1764 1.507 1.4551 1.2649 1.4551-0.0523 0-0.66426-0.612-1.36-1.36zm-109.92-0.8-1.7491-1.84 1.84 1.7491c1.012 0.96199 1.84 1.79 1.84 1.84 0 0.23752-0.30598-0.0396-1.9309-1.7491zm-18.807 0.72c6e-3 -0.528 0.0782-0.70526 0.15939-0.39391 0.0811 0.31135 0.0758 0.74335-0.0118 0.96-0.0877 0.21665-0.15402-0.0381-0.14752-0.56609zm171.8-0.0267c0.0154-0.37278 0.0912-0.4486 0.19334-0.19333 0.0924 0.231 0.0811 0.507-0.0253 0.61333-0.10633 0.10634-0.18198-0.0827-0.16809-0.42zm19.84-0.64c0.0154-0.37278 0.0912-0.4486 0.19334-0.19333 0.0924 0.231 0.0811 0.507-0.0253 0.61333-0.10633 0.10634-0.18198-0.0827-0.16809-0.42zm61.76-0.32c0.0154-0.37278 0.0912-0.4486 0.19334-0.19333 0.0924 0.231 0.0811 0.507-0.0253 0.61333-0.10633 0.10634-0.18198-0.0827-0.16809-0.42zm-164.35-23.973c3e-5 -13.376 0.0395-18.801 0.0878-12.056 0.0483 6.745 0.0483 17.689-3e-5 24.32-0.0483 6.631-0.0878 1.1123-0.0877-12.264zm124.49-7.04 3e-3 -30.72 16.8-0.016-16.637 0.1868-0.168 61.269 3e-3 -30.72zm-145.17 27.999c-0.0574-1.4084 4e-3 -2.5604 0.13565-2.56 0.132 3.2e-4 0.24 1.1528 0.24 2.5608s-0.061 2.56-0.13565 2.56c-0.0746 0-0.18259-1.1523-0.24-2.5608zm-197.87-20.159 3e-3 -22.24 47.52-6e-3 -47.356 0.1702-0.1708 44.316 3e-3 -22.24zm-22.4-30.56c0-29.04 0.0377-40.873 0.0837-26.295 0.0461 14.578 0.0461 38.338 0 52.8-0.046 14.462-0.0837 2.5348-0.0837-26.505zm324.09 51.36c0-0.792 0.0624-1.116 0.13865-0.72 0.0763 0.396 0.0763 1.044 0 1.44-0.0762 0.396-0.13865 0.072-0.13865-0.72zm427.43 0.83918c0-0.0665 0.252-0.31845 0.56-0.56 0.5076-0.39804 0.5188-0.38672 0.1208 0.12082-0.418 0.53304-0.6808 0.70255-0.6808 0.43918zm114.56 0c0-0.0665 0.252-0.31845 0.56-0.56 0.5076-0.39804 0.5188-0.38672 0.1208 0.12082-0.418 0.53304-0.6808 0.70255-0.6808 0.43918zm-438.89-33.639c0-18.48 0.0386-25.993 0.0857-16.696 0.0472 9.2975 0.0472 24.417 0 33.6-0.0472 9.1825-0.0858 1.5755-0.0857-16.904zm220.81 32.48c0.3186-0.352 0.6512-0.64 0.7392-0.64s-0.1006 0.288-0.4192 0.64-0.6512 0.64-0.7392 0.64 0.1006-0.288 0.4192-0.64zm-496.08-0.8c4e-3 -0.704 0.0691-0.95432 0.14564-0.55627 0.0765 0.39805 0.0736 0.97405-6e-3 1.28-0.0801 0.30595-0.14272-0.0197-0.13917-0.72373zm518.28 0.56c-0.398-0.50754-0.3868-0.51886 0.1208-0.12082 0.308 0.24155 0.56 0.49355 0.56 0.56 0 0.26337-0.2628 0.0939-0.6808-0.43918zm114.56 0c-0.398-0.50754-0.3868-0.51886 0.1208-0.12082 0.308 0.24155 0.56 0.49355 0.56 0.56 0 0.26337-0.2628 0.0939-0.6808-0.43918zm-216.32-0.96c-0.39802-0.50754-0.38672-0.51886 0.12083-0.12082 0.308 0.24155 0.56 0.49355 0.56 0.56 0 0.26337-0.26278 0.0939-0.68083-0.43918zm-372.18-1.8986c0.23101-0.0924 0.50701-0.0811 0.61334 0.0252 0.10634 0.10634-0.0827 0.18197-0.42 0.16807-0.3728-0.0154-0.4486-0.0912-0.19334-0.19333zm7.04 0c0.23101-0.0924 0.50701-0.0811 0.61334 0.0252 0.10634 0.10634-0.0827 0.18197-0.42 0.16807-0.3728-0.0154-0.4486-0.0912-0.19334-0.19333zm361.66-1.2214c-0.77728-0.792-1.3412-1.44-1.2532-1.44s0.79597 0.648 1.5732 1.44 1.3412 1.44 1.2532 1.44-0.79597-0.648-1.5732-1.44zm191.04 0.99918c0-0.0665 0.252-0.31845 0.56-0.56 0.5076-0.39804 0.5188-0.38672 0.1208 0.12082-0.418 0.53304-0.6808 0.70255-0.6808 0.43918zm114.56 0c0-0.0665 0.252-0.31845 0.56-0.56 0.5076-0.39804 0.5188-0.38672 0.1208 0.12082-0.418 0.53304-0.6808 0.70255-0.6808 0.43918zm-681.32-2.6792c-0.39802-0.50754-0.38672-0.51886 0.12083-0.12082 0.308 0.24155 0.56 0.49355 0.56 0.56 0 0.26337-0.26278 0.0939-0.68083-0.43918zm-48.979 0.0214c0.23101-0.0924 0.50701-0.0811 0.61334 0.0252 0.10634 0.10633-0.0827 0.18196-0.42 0.16807-0.3728-0.0154-0.4486-0.0912-0.19334-0.19333zm5.2661-3e-3c0.31136-0.0811 0.74336-0.0758 0.96 0.0119 0.21667 0.0877-0.0381 0.15404-0.56608 0.14752-0.528-7e-3 -0.70525-0.0782-0.39392-0.15938zm161.11 0.01c0.22-0.0888 0.58-0.0888 0.8 0s0.04 0.16141-0.4 0.16141-0.62-0.0726-0.4-0.16141zm5.6061-0.01c0.31136-0.0811 0.74336-0.0758 0.96 0.0119 0.21667 0.0877-0.0381 0.15404-0.56608 0.14752-0.528-7e-3 -0.70525-0.0782-0.39392-0.15938zm355.14-0.28491c0.015-0.37278 0.091-0.44861 0.1934-0.19334 0.092 0.231 0.081 0.50701-0.025 0.61334-0.1063 0.10633-0.182-0.0827-0.1681-0.42zm114.56 0c0.015-0.37278 0.091-0.44861 0.1934-0.19334 0.092 0.231 0.081 0.50701-0.025 0.61334-0.1063 0.10633-0.182-0.0827-0.1681-0.42zm-130.82-0.93349c0-0.704 0.069-0.95432 0.1456-0.55627 0.077 0.39805 0.074 0.97405-0.01 1.28-0.08 0.30595-0.1427-0.0197-0.1391-0.72373zm-333.28 0.26807c0.22-0.0888 0.58-0.0888 0.8 0s0.04 0.16141-0.4 0.16141-0.62-0.0726-0.4-0.16141zm394.73-0.0262c1.3721-0.0601 3.5321-0.0598 4.8 9.6e-4 1.268 0.0606 0.1454 0.10978-2.4946 0.10933-2.64-3.2e-4 -3.6774-0.05-2.3054-0.11014zm114.56 0c1.3721-0.0601 3.5321-0.0598 4.8 9.6e-4 1.268 0.0606 0.1454 0.10978-2.4946 0.10933-2.64-3.2e-4 -3.6774-0.05-2.3054-0.11014zm-120.33-0.30363c0.3113-0.0811 0.7433-0.0758 0.96 0.0119s-0.038 0.15404-0.5661 0.14752c-0.528-7e-3 -0.7052-0.0782-0.3939-0.15938zm15.194 0.01c0.22-0.0888 0.58-0.0888 0.8 0s0.04 0.16141-0.4 0.16141-0.62-0.0726-0.4-0.16141zm99.366-0.01c0.3113-0.0811 0.7433-0.0758 0.96 0.0119s-0.038 0.15404-0.5661 0.14752c-0.528-7e-3 -0.7052-0.0782-0.3939-0.15938zm15.194 0.01c0.22-0.0888 0.58-0.0888 0.8 0s0.04 0.16141-0.4 0.16141-0.62-0.0726-0.4-0.16141zm-622.64-1.2282c0.59706-0.616 1.1575-1.12 1.2455-1.12s-0.32848 0.504-0.92554 1.12-1.1575 1.12-1.2455 1.12 0.32848-0.504 0.92554-1.12zm347.8 0.56c-0.39802-0.50754-0.38672-0.51886 0.12083-0.12082 0.308 0.24155 0.56 0.49355 0.56 0.56 0 0.26337-0.26278 0.0939-0.68083-0.43918zm142.38 0.3414c0.231-0.0924 0.507-0.0811 0.6133 0.0252 0.1064 0.10634-0.083 0.18197-0.42 0.16807-0.3728-0.0154-0.4486-0.0912-0.1933-0.19333zm114.56 0c0.231-0.0924 0.507-0.0811 0.6133 0.0252 0.1064 0.10634-0.083 0.18197-0.42 0.16807-0.3728-0.0154-0.4486-0.0912-0.1933-0.19333zm-209.3-0.33289c0.572-0.071 1.508-0.071 2.08 0s0.104 0.12907-1.04 0.12907-1.612-0.0581-1.04-0.12907zm-5.12-0.30044c0.22-0.0888 0.58-0.0888 0.8 0s0.04 0.16141-0.4 0.16141-0.62-0.0726-0.4-0.16141zm11.2 0c0.22-0.0888 0.58-0.0888 0.8 0s0.04 0.16141-0.4 0.16141-0.62-0.0726-0.4-0.16141zm84.82-7e-3c0.231-0.0924 0.507-0.0811 0.6133 0.0252 0.1064 0.10634-0.083 0.18197-0.42 0.16807-0.3728-0.0154-0.4486-0.0912-0.1933-0.19333zm114.56 0c0.231-0.0924 0.507-0.0811 0.6133 0.0252 0.1064 0.10634-0.083 0.18197-0.42 0.16807-0.3728-0.0154-0.4486-0.0912-0.1933-0.19333zm-681.56-0.98107-0.77578-0.88 0.88 0.77578c0.8225 0.72508 1.0268 0.98422 0.77578 0.98422-0.0573 0-0.45332-0.396-0.88-0.88zm165.74 0.32c-0.39802-0.50754-0.38672-0.51886 0.12083-0.12082 0.53302 0.41804 0.70256 0.68082 0.43917 0.68082-0.0664 0-0.31843-0.252-0.56-0.56zm303.02 0.3414c0.231-0.0924 0.507-0.0811 0.6133 0.0252 0.1064 0.10634-0.083 0.18197-0.42 0.16807-0.3728-0.0154-0.4486-0.0912-0.1933-0.19333zm16 0c0.231-0.0924 0.507-0.0811 0.6133 0.0252 0.1064 0.10634-0.083 0.18197-0.42 0.16807-0.3728-0.0154-0.4486-0.0912-0.1933-0.19333zm1.92-0.32c0.231-0.0924 0.507-0.0811 0.6133 0.0252 0.1064 0.10634-0.083 0.18197-0.42 0.16807-0.3728-0.0154-0.4486-0.0912-0.1933-0.19333zm47.445-0.28807c0.015-0.37278 0.091-0.4486 0.1934-0.19333 0.092 0.231 0.081 0.507-0.025 0.61333-0.1063 0.10634-0.182-0.0827-0.1681-0.42zm114.56 0c0.015-0.37278 0.091-0.4486 0.1934-0.19333 0.092 0.231 0.081 0.507-0.025 0.61333-0.1063 0.10634-0.182-0.0827-0.1681-0.42zm-673.6-1.28c0.0154-0.37278 0.0912-0.4486 0.19334-0.19333 0.0924 0.231 0.0811 0.507-0.0253 0.61333-0.10633 0.10634-0.18198-0.0827-0.16809-0.42zm189.05-0.0533c-0.39802-0.50754-0.38672-0.51886 0.12083-0.12082 0.308 0.24155 0.56 0.49355 0.56 0.56 0 0.26337-0.26278 0.0939-0.68083-0.43918zm-134.01-0.9067c0.0154-0.37278 0.0912-0.4486 0.19334-0.19333 0.0924 0.231 0.0811 0.507-0.0253 0.61333-0.10633 0.10634-0.18198-0.0827-0.16809-0.42zm-55.36-0.96c0.0154-0.37278 0.0912-0.4486 0.19334-0.19333 0.0924 0.231 0.0811 0.507-0.0253 0.61333-0.10633 0.10634-0.18198-0.0827-0.16809-0.42zm627.81 0.38585c0-0.0665 0.252-0.31845 0.56-0.56 0.5076-0.39804 0.5188-0.38672 0.1208 0.12082-0.418 0.53304-0.6808 0.70255-0.6808 0.43918zm114.56 0c0-0.0665 0.252-0.31845 0.56-0.56 0.5076-0.39804 0.5188-0.38672 0.1208 0.12082-0.418 0.53304-0.6808 0.70255-0.6808 0.43918zm-577.57-0.70585c0.0154-0.37278 0.0912-0.4486 0.19334-0.19333 0.0924 0.231 0.0811 0.507-0.0253 0.61333-0.10633 0.10634-0.18198-0.0827-0.16809-0.42zm464.93-1.2142c0-0.0665 0.252-0.31845 0.56-0.56 0.5076-0.39804 0.5188-0.38672 0.1208 0.12082-0.418 0.53304-0.6808 0.70255-0.6808 0.43918zm114.56 0c0-0.0665 0.252-0.31845 0.56-0.56 0.5076-0.39804 0.5188-0.38672 0.1208 0.12082-0.418 0.53304-0.6808 0.70255-0.6808 0.43918zm-744.57-1.4792c0-0.616 0.0659-0.868 0.14634-0.56 0.0805 0.308 0.0805 0.812 0 1.12s-0.14634 0.056-0.14634-0.56zm164.75 0.45333c0.0154-0.37278 0.0912-0.4486 0.19334-0.19333 0.0924 0.231 0.0811 0.507-0.0253 0.61333-0.10633 0.10634-0.18198-0.0827-0.16809-0.42zm397.73-0.29333c0.4133-0.44 0.8236-0.8 0.9116-0.8s-0.1783 0.36-0.5916 0.8-0.8236 0.8-0.9116 0.8 0.1783-0.36 0.5916-0.8zm114.56 0c0.4133-0.44 0.8236-0.8 0.9116-0.8s-0.1783 0.36-0.5916 0.8-0.8236 0.8-0.9116 0.8 0.1783-0.36 0.5916-0.8zm-199.4-0.4c-0.398-0.50754-0.3868-0.51886 0.1208-0.12082 0.308 0.24155 0.56 0.49355 0.56 0.56 0 0.26337-0.2628 0.0939-0.6808-0.43918zm-400.87-0.4c0-0.44 0.0726-0.62 0.16141-0.4 0.0888 0.22 0.0888 0.58 0 0.8s-0.16141 0.04-0.16141-0.4zm87.707-22.152-0.0776-20.712-11.04-0.1912 5.53-0.0719c4.1834-0.0544 5.5673 0.0255 5.6829 0.32807 0.0841 0.22 0.1145 9.616 0.0675 20.88l-0.0853 20.48zm-108.83 19.272c0-0.44 0.0726-0.62 0.16141-0.4 0.0888 0.22 0.0888 0.58 0 0.8s-0.16141 0.04-0.16141-0.4zm130.88-0.32c0-0.44 0.0726-0.62 0.16141-0.4 0.0888 0.22 0.0888 0.58 0 0.8s-0.16141 0.04-0.16141-0.4zm-164.7-42.88c0-23.672 0.038-33.356 0.0846-21.52 0.0465 11.836 0.0465 31.204 0 43.04s-0.0846 2.152-0.0846-21.52zm90.11 42.053c0.0154-0.37278 0.0912-0.4486 0.19334-0.19333 0.0924 0.231 0.0811 0.507-0.0253 0.61333-0.10633 0.10634-0.18198-0.0827-0.16809-0.42zm361.21-0.0533c-0.398-0.50754-0.3868-0.51886 0.1208-0.12082 0.308 0.24155 0.56 0.49355 0.56 0.56 0 0.26337-0.2628 0.0939-0.6808-0.43918zm160.39-0.90667c0.015-0.37278 0.091-0.4486 0.1934-0.19333 0.092 0.231 0.081 0.507-0.025 0.61333-0.1063 0.10634-0.182-0.0827-0.1681-0.42zm114.56 0c0.015-0.37278 0.091-0.4486 0.1934-0.19333 0.092 0.231 0.081 0.507-0.025 0.61333-0.1063 0.10634-0.182-0.0827-0.1681-0.42zm-92.111-1.7333c0-0.616 0.066-0.868 0.1464-0.56 0.081 0.308 0.081 0.812 0 1.12-0.08 0.308-0.1464 0.056-0.1464-0.56zm114.56 0c0-0.616 0.066-0.868 0.1464-0.56 0.08 0.308 0.08 0.812 0 1.12-0.081 0.308-0.1464 0.056-0.1464-0.56zm-658.2-2.56c0-1.496 0.0551-2.108 0.12249-1.36 0.0674 0.748 0.0674 1.972 0 2.72s-0.12249 0.136-0.12249-1.36zm521.19-0.82667c0.015-0.37278 0.091-0.4486 0.1934-0.19333 0.092 0.231 0.081 0.507-0.025 0.61333-0.1063 0.10634-0.182-0.0827-0.1681-0.42zm114.56 0c0.015-0.37278 0.091-0.4486 0.1934-0.19333 0.092 0.231 0.081 0.507-0.025 0.61333-0.1063 0.10634-0.182-0.0827-0.1681-0.42zm-92.104-1.5733c0-0.704 0.069-0.95432 0.1456-0.55627 0.077 0.39805 0.074 0.97405-0.01 1.28-0.08 0.30595-0.1427-0.0197-0.1391-0.72373zm114.56 0c0-0.704 0.069-0.95432 0.1456-0.55627 0.077 0.39805 0.074 0.97405-0.01 1.28-0.08 0.30595-0.1427-0.0197-0.1391-0.72373zm-679.82 0.5814c0.23101-0.0924 0.50701-0.0811 0.61334 0.0252 0.10634 0.10634-0.0827 0.18197-0.42 0.16807-0.3728-0.0154-0.4486-0.0912-0.19334-0.19333zm2.86-0.31333c0.22-0.0888 0.58-0.0888 0.8 0s0.04 0.16141-0.4 0.16141-0.62-0.0726-0.4-0.16141zm4.64-0.33727c0.484-0.0733 1.276-0.0733 1.76 0s0.088 0.13331-0.88 0.13331-1.364-0.06-0.88-0.13331zm342.99-9.2375c0.0154-0.37278 0.0912-0.4486 0.19334-0.19333 0.0924 0.231 0.0811 0.507-0.0253 0.61333-0.10633 0.10634-0.18198-0.0827-0.16809-0.42zm-0.32-1.92c0.0154-0.37278 0.0912-0.4486 0.19334-0.19333 0.0924 0.231 0.0811 0.507-0.0253 0.61333-0.10633 0.10634-0.18198-0.0827-0.16809-0.42zm-359.77-0.0319c0.23101-0.0924 0.50701-0.0811 0.61334 0.0252 0.10634 0.10633-0.0827 0.18196-0.42 0.16807-0.3728-0.0154-0.4486-0.0912-0.19334-0.19333zm2.24-0.32c0.23101-0.0924 0.50701-0.0811 0.61334 0.0252 0.10634 0.10633-0.0827 0.18196-0.42 0.16807-0.3728-0.0154-0.4486-0.0912-0.19334-0.19333zm2.54-0.31334c0.22-0.0888 0.58-0.0888 0.8 0s0.04 0.16141-0.4 0.16141-0.62-0.0726-0.4-0.16141zm3.3661-0.32982c0.31136-0.0811 0.74336-0.0758 0.96 0.0119 0.21667 0.0877-0.0381 0.15404-0.56608 0.14752-0.528-7e-3 -0.70525-0.0782-0.39392-0.15938zm4.4783-0.32787c0.48644-0.0736 1.2064-0.0716 1.6 4e-3 0.3936 0.076-4e-3 0.13613-0.88438 0.13373-0.88-3e-3 -1.202-0.0645-0.71562-0.1381zm13.182-0.32609 5.2675-0.0996 0.11478-2.6323 0.11479-2.6323-0.0442 5.44-10.721 0.024 5.2675-0.0996zm333.66-1.0443c0-0.44 0.0726-0.62 0.16141-0.4 0.0888 0.22 0.0888 0.58 0 0.8s-0.16141 0.04-0.16141-0.4zm23.975 0.13333c0.015-0.37278 0.091-0.4486 0.1934-0.19333 0.092 0.231 0.081 0.507-0.025 0.61333-0.1063 0.10634-0.182-0.0827-0.1681-0.42zm185.53-1.9733c-0.398-0.50754-0.3868-0.51886 0.1208-0.12082 0.533 0.41804 0.7026 0.68082 0.4392 0.68082-0.066 0-0.3185-0.252-0.56-0.56zm114.56 0c-0.398-0.50754-0.3868-0.51886 0.1208-0.12082 0.308 0.24155 0.56 0.49355 0.56 0.56 0 0.26337-0.2628 0.0939-0.6808-0.43918zm-300.38-0.88c0.01-0.528 0.078-0.70526 0.1594-0.39391 0.081 0.31135 0.076 0.74335-0.012 0.96s-0.154-0.0381-0.1475-0.56609zm-23.982-0.96c4e-3 -0.704 0.0691-0.95432 0.14564-0.55627 0.0765 0.39805 0.0736 0.97405-6e-3 1.28-0.0801 0.30595-0.14272-0.0197-0.13917-0.72373zm-307.55-3.04c0-0.44 0.0726-0.62 0.16141-0.4 0.0888 0.22 0.0888 0.58 0 0.8s-0.16141 0.04-0.16141-0.4zm331.27-3.36c0-2.288 0.052-3.182 0.1133-1.9867 0.062 1.1953 0.061 3.0673 0 4.16-0.062 1.0927-0.1128 0.11469-0.1123-2.1733zm-352.1 3.1733c0.0154-0.37278 0.0912-0.4486 0.19334-0.19333 0.0924 0.231 0.0811 0.507-0.0253 0.61333-0.10633 0.10634-0.18198-0.0827-0.16809-0.42zm-141.04-3.3333c0-1.144 0.0581-1.612 0.12906-1.04 0.071 0.572 0.071 1.508 0 2.08s-0.12906 0.104-0.12906-1.04zm161.52 1.0933c0.0154-0.37278 0.0912-0.4486 0.19334-0.19333 0.0924 0.231 0.0811 0.507-0.0253 0.61333-0.10633 0.10634-0.18198-0.0827-0.16809-0.42zm439.93-1.9733c-0.398-0.50754-0.3868-0.51886 0.1208-0.12082 0.533 0.41804 0.7026 0.68082 0.4392 0.68082-0.066 0-0.3185-0.252-0.56-0.56zm114.56 0c-0.398-0.50754-0.3868-0.51886 0.1208-0.12082 0.308 0.24155 0.56 0.49355 0.56 0.56 0 0.26337-0.2628 0.0939-0.6808-0.43918zm-619.88-1.5858c0.396-0.0763 1.044-0.0763 1.44 0s0.072 0.13867-0.72 0.13867-1.116-0.0624-0.72-0.13867zm502.76-0.65417c-0.398-0.50754-0.3868-0.51886 0.1208-0.12082 0.308 0.24155 0.56 0.49355 0.56 0.56 0 0.26337-0.2628 0.0939-0.6808-0.43918zm114.56 0c-0.398-0.50754-0.3868-0.51886 0.1208-0.12082 0.308 0.24155 0.56 0.49355 0.56 0.56 0 0.26337-0.2628 0.0939-0.6808-0.43918zm-576.15-2.08-0.6096-0.72 0.72 0.6096c0.67661 0.57287 0.86566 0.8304 0.6096 0.8304-0.0607 0-0.38474-0.324-0.72-0.72zm332.1-1.2c0-0.616 0.0659-0.868 0.14634-0.56 0.0805 0.308 0.0805 0.812 0 1.12s-0.14634 0.056-0.14634-0.56zm23.976-0.96c0-0.44 0.073-0.62 0.1614-0.4 0.089 0.22 0.089 0.58 0 0.8s-0.1614 0.04-0.1614-0.4zm-272.77 0.0806c2.86-0.053 7.54-0.053 10.4 0s0.52 0.0964-5.2 0.0964-8.06-0.0434-5.2-0.0964zm36.815 9.6e-4c1.4604-0.0594 3.7644-0.0591 5.12 6.4e-4 1.3556 0.0598 0.1608 0.10846-2.6552 0.10805-2.816-3.2e-4 -3.9252-0.0494-2.4648-0.10878zm-139.54-1.2535c0.22-0.0888 0.58-0.0888 0.8 0s0.04 0.16141-0.4 0.16141-0.62-0.0726-0.4-0.16141zm11.86-7e-3c0.23101-0.0924 0.50701-0.0811 0.61334 0.0252 0.10634 0.10634-0.0827 0.18197-0.42 0.16807-0.3728-0.0154-0.4486-0.0912-0.19334-0.19333zm-186.03-0.50107c-0.0842-0.22-0.11444-8.176-0.0671-17.68l0.086-17.28 0.0772 17.518 0.0771 17.518 49.12 0.168-24.57 0.078c-19.419 0.0616-24.602-6e-3 -24.723-0.32202zm177.38 0.17368c0.39805-0.0765 0.97405-0.0736 1.28 6e-3 0.30592 0.0801-0.0198 0.14272-0.72374 0.13917-0.704-4e-3 -0.95434-0.0691-0.55626-0.14563zm5.5963 6e-3c0.308-0.0805 0.812-0.0805 1.12 0s0.056 0.14635-0.56 0.14635-0.868-0.0659-0.56-0.14635zm50.93-0.49941-0.6096-0.72 0.72 0.6096c0.67661 0.57287 0.86566 0.8304 0.6096 0.8304-0.0607 0-0.38474-0.324-0.72-0.72zm63.07 0.0797c0.31856-0.352 0.6512-0.64 0.7392-0.64s-0.10064 0.288-0.4192 0.64-0.6512 0.64-0.7392 0.64 0.10064-0.288 0.4192-0.64zm9.0958-0.24-0.77578-0.88 0.88 0.77578c0.484 0.42668 0.88 0.82268 0.88 0.88 0 0.25097-0.25914 0.0467-0.98422-0.77578zm58.584 0.08c0.41334-0.44 0.82355-0.8 0.91155-0.8s-0.17821 0.36-0.59155 0.8-0.82355 0.8-0.91155 0.8 0.17821-0.36 0.59155-0.8zm-218.47-0.96c3e-3 -0.88 0.0645-1.202 0.13811-0.7156 0.0735 0.48642 0.0716 1.2064-4e-3 1.6-0.0759 0.39358-0.13613-4e-3 -0.13373-0.8844zm379.77 0.29333c0.0154-0.37278 0.0912-0.4486 0.19334-0.19333 0.0924 0.231 0.0811 0.507-0.0253 0.61333-0.10633 0.10634-0.18198-0.0827-0.16809-0.42zm24 0c0.015-0.37278 0.091-0.4486 0.1934-0.19333 0.092 0.231 0.081 0.507-0.025 0.61333-0.1063 0.10634-0.182-0.0827-0.1681-0.42zm-23.68-2.56c0.0154-0.37278 0.0912-0.4486 0.19334-0.19333 0.0924 0.231 0.0811 0.507-0.0253 0.61333-0.10633 0.10634-0.18198-0.0827-0.16809-0.42zm-294.36-1.5733c6e-3 -0.528 0.0782-0.70526 0.15939-0.39391 0.0811 0.31135 0.0758 0.74335-0.0118 0.96s-0.15402-0.0381-0.14752-0.56609zm67.24-1.12c0-1.144 0.0581-1.612 0.12906-1.04 0.071 0.572 0.071 1.508 0 2.08s-0.12906 0.104-0.12906-1.04zm5.0428 1.4133c0.0154-0.37278 0.0912-0.4486 0.19334-0.19333 0.0924 0.231 0.0811 0.507-0.0253 0.61333-0.10633 0.10634-0.18198-0.0827-0.16809-0.42zm62.4 0c0.0154-0.37278 0.0912-0.4486 0.19334-0.19333 0.0924 0.231 0.0811 0.507-0.0253 0.61333-0.10633 0.10634-0.18198-0.0827-0.16809-0.42zm56.96-0.64c0.0154-0.37278 0.0912-0.4486 0.19334-0.19333 0.0924 0.231 0.0811 0.507-0.0253 0.61333-0.10633 0.10634-0.18198-0.0827-0.16809-0.42zm103.04 0c0.0154-0.37278 0.0912-0.4486 0.19334-0.19333 0.0924 0.231 0.0811 0.507-0.0253 0.61333-0.10633 0.10634-0.18198-0.0827-0.16809-0.42zm-315.89-0.69333-0.77578-0.88 0.88 0.77578c0.484 0.42668 0.88 0.82268 0.88 0.88 0 0.25097-0.25914 0.0467-0.98422-0.77578zm172.21-0.58667c0.0154-0.37278 0.0912-0.4486 0.19334-0.19333 0.0924 0.231 0.0811 0.507-0.0253 0.61333-0.10633 0.10634-0.18198-0.0827-0.16809-0.42zm289.88-0.69333-1.1028-1.2 1.2 1.1028c0.66 0.60653 1.2 1.1465 1.2 1.2 0 0.24436-0.2708 0.0142-1.2972-1.1028zm114.56 0-1.1028-1.2 1.2 1.1028c0.66 0.60653 1.2 1.1465 1.2 1.2 0 0.24436-0.2708 0.0142-1.2972-1.1028zm-555.44 0.08c6e-3 -0.528 0.0782-0.70526 0.15939-0.39391 0.0811 0.31135 0.0758 0.74335-0.0118 0.96s-0.15402-0.0381-0.14752-0.56609zm276.76 0.29333c0.0154-0.37278 0.0912-0.4486 0.19334-0.19333 0.0924 0.231 0.0811 0.507-0.0253 0.61333-0.10633 0.10634-0.18198-0.0827-0.16809-0.42zm-104.32-0.32c0.0154-0.37278 0.0912-0.4486 0.19334-0.19333 0.0925 0.231 0.0811 0.507-0.0253 0.61333-0.10633 0.10634-0.18198-0.0827-0.16809-0.42zm-255.87-0.45333c0.31856-0.352 0.6512-0.64 0.7392-0.64s-0.10064 0.288-0.4192 0.64-0.6512 0.64-0.7392 0.64 0.10064-0.288 0.4192-0.64zm155.73 0c0-0.44 0.0726-0.62 0.16141-0.4 0.0888 0.22 0.0888 0.58 0 0.8s-0.16141 0.04-0.16141-0.4zm62.4 0c0-0.44 0.0726-0.62 0.16141-0.4 0.0888 0.22 0.0888 0.58 0 0.8s-0.16141 0.04-0.16141-0.4zm-158-0.4-0.6096-0.72 0.72 0.6096c0.67661 0.57287 0.86566 0.8304 0.6096 0.8304-0.0607 0-0.38474-0.324-0.72-0.72zm214.94 0.21333c0.0154-0.37278 0.0912-0.4486 0.19334-0.19333 0.0924 0.231 0.0811 0.507-0.0253 0.61333-0.10633 0.10634-0.18198-0.0827-0.16809-0.42zm223.68-2.24c0.015-0.37278 0.091-0.4486 0.1934-0.19333 0.092 0.231 0.081 0.507-0.025 0.61333-0.1063 0.10634-0.182-0.0827-0.1681-0.42zm114.56 0c0.015-0.37278 0.091-0.4486 0.1934-0.19333 0.092 0.231 0.081 0.507-0.025 0.61333-0.1063 0.10634-0.182-0.0827-0.1681-0.42zm-360.21-2.7733-0.93987-1.04 1.04 0.93987c0.572 0.51693 1.04 0.98493 1.04 1.04 0 0.24722-0.26403 0.0296-1.1401-0.93987zm-105.14 0.16c-0.39802-0.50754-0.38672-0.51886 0.12083-0.12082 0.53302 0.41804 0.70256 0.68082 0.43917 0.68082-0.0664 0-0.31843-0.252-0.56-0.56zm89.321-0.24c0.41334-0.44 0.82355-0.8 0.91155-0.8s-0.17821 0.36-0.59155 0.8-0.82355 0.8-0.91155 0.8 0.17821-0.36 0.59155-0.8zm56.279 0.24c-0.39802-0.50754-0.38672-0.51886 0.12083-0.12082 0.308 0.24155 0.56 0.49355 0.56 0.56 0 0.26337-0.26278 0.0939-0.68083-0.43918zm204.9-0.24c0.01-0.528 0.078-0.70526 0.1594-0.39391 0.081 0.31135 0.076 0.74335-0.012 0.96s-0.154-0.0381-0.1475-0.56609zm114.56 0c0.01-0.528 0.078-0.70526 0.1594-0.39391 0.081 0.31135 0.076 0.74335-0.012 0.96s-0.154-0.0381-0.1475-0.56609zm-255.6-0.56-0.93987-1.04 1.04 0.93987c0.96944 0.87609 1.1871 1.1401 0.93987 1.1401-0.0551 0-0.52307-0.468-1.04-1.04zm-267.42-0.77193c0.22-0.0888 0.58-0.0888 0.8 0s0.04 0.16141-0.4 0.16141-0.62-0.0726-0.4-0.16141zm53.44 0c0.22-0.0888 0.58-0.0888 0.8 0s0.04 0.16141-0.4 0.16141-0.62-0.0726-0.4-0.16141zm18.88 0c0.22-0.0888 0.58-0.0888 0.8 0s0.04 0.16141-0.4 0.16141-0.62-0.0726-0.4-0.16141zm48.64 0c0.22-0.0888 0.58-0.0888 0.8 0s0.04 0.16141-0.4 0.16141-0.62-0.0726-0.4-0.16141zm-109.54-9.0681c0-5.016 0.0443-7.068 0.0983-4.56 0.0541 2.508 0.0541 6.612 0 9.12-0.054 2.508-0.0983 0.456-0.0983-4.56zm93.093 6.24c0-1.584 0.0531-2.2724 0.12022-1.5296 0.0671 0.74268 0.0679 2.0387 3e-3 2.88-0.0661 0.8413-0.12105 0.23365-0.12201-1.3504zm-150.57 1.8614c0.23101-0.0924 0.50701-0.0811 0.61334 0.0252 0.10634 0.10634-0.0827 0.18197-0.42 0.16807-0.3728-0.0154-0.4486-0.0912-0.19334-0.19333zm-19.86-0.31333c0.22-0.0888 0.58-0.0888 0.8 0s0.04 0.16141-0.4 0.16141-0.62-0.0726-0.4-0.16141zm17.94-7e-3c0.23101-0.0924 0.50701-0.0811 0.61334 0.0252 0.10634 0.10634-0.0827 0.18197-0.42 0.16807-0.3728-0.0154-0.4486-0.0912-0.19334-0.19333zm201.89-0.0123c0.56807-0.0707 1.5761-0.0719 2.24-3e-3 0.66394 0.0693 0.19914 0.12711-1.0329 0.12853-1.232 1e-3 -1.7752-0.0553-1.2071-0.12595zm38.747 0.0123c0.23101-0.0924 0.50701-0.0811 0.61334 0.0252 0.10634 0.10634-0.0827 0.18197-0.42 0.16807-0.3728-0.0154-0.4486-0.0912-0.19334-0.19333zm5.76 0c0.23101-0.0924 0.50701-0.0811 0.61334 0.0252 0.10634 0.10634-0.0827 0.18197-0.42 0.16807-0.3728-0.0154-0.4486-0.0912-0.19334-0.19333zm59.84 0c0.23101-0.0924 0.50701-0.0811 0.61334 0.0252 0.10634 0.10634-0.0827 0.18197-0.42 0.16807-0.3728-0.0154-0.4486-0.0912-0.19334-0.19333zm-321.3-0.31334c0.22-0.0888 0.58-0.0888 0.8 0s0.04 0.16141-0.4 0.16141-0.62-0.0726-0.4-0.16141zm12.006-0.01c0.31136-0.0811 0.74336-0.0758 0.96 0.0119 0.21667 0.0877-0.0381 0.15404-0.56608 0.14752-0.528-7e-3 -0.70525-0.0782-0.39392-0.15938zm-6.7261-0.32693c0.484-0.0733 1.276-0.0733 1.76 0s0.088 0.13331-0.88 0.13331-1.364-0.06-0.88-0.13331zm140.47-2.6508c0-0.616 0.0659-0.868 0.14634-0.56 0.0805 0.308 0.0805 0.812 0 1.12s-0.14634 0.056-0.14634-0.56zm325.75-0.16c0.01-0.528 0.078-0.70526 0.1594-0.39391 0.081 0.31135 0.076 0.74335-0.012 0.96s-0.154-0.0381-0.1475-0.56609zm114.56 0c0.01-0.528 0.078-0.70526 0.1594-0.39391 0.081 0.31135 0.076 0.74335-0.012 0.96s-0.154-0.0381-0.1475-0.56609zm-92.197-0.66667c0.015-0.37278 0.091-0.4486 0.1934-0.19333 0.092 0.231 0.081 0.507-0.025 0.61333-0.1063 0.10634-0.182-0.0827-0.1681-0.42zm114.56 0c0.015-0.37278 0.091-0.4486 0.1934-0.19333 0.092 0.231 0.081 0.507-0.025 0.61333-0.1063 0.10634-0.182-0.0827-0.1681-0.42zm-136.64-2.24c0.015-0.37278 0.091-0.4486 0.1934-0.19333 0.092 0.231 0.081 0.507-0.025 0.61333-0.1063 0.10634-0.182-0.0827-0.1681-0.42zm114.56 0c0.015-0.37278 0.091-0.4486 0.1934-0.19333 0.092 0.231 0.081 0.507-0.025 0.61333-0.1063 0.10634-0.182-0.0827-0.1681-0.42zm-440.32-0.32c0.0154-0.37278 0.0912-0.4486 0.19334-0.19333 0.0925 0.231 0.0811 0.507-0.0253 0.61333-0.10633 0.10634-0.18198-0.0827-0.16809-0.42zm21.76 0c0.0154-0.37278 0.0912-0.4486 0.19334-0.19333 0.0925 0.231 0.0811 0.507-0.0253 0.61333-0.10633 0.10634-0.18198-0.0827-0.16809-0.42zm215.01 0.38585c0-0.0665 0.252-0.31845 0.56-0.56 0.5076-0.39804 0.5188-0.38672 0.1208 0.12082-0.418 0.53304-0.6808 0.70255-0.6808 0.43918zm-236.45-2.6258c0.0154-0.37278 0.0912-0.4486 0.19334-0.19333 0.0924 0.231 0.0811 0.507-0.0253 0.61333-0.10633 0.10634-0.18198-0.0827-0.16809-0.42zm0.32-1.6c0.0154-0.37278 0.0912-0.4486 0.19334-0.19333 0.0924 0.231 0.0811 0.507-0.0253 0.61333-0.10633 0.10634-0.18198-0.0827-0.16809-0.42zm405.5-0.67509c0.3113-0.0811 0.7433-0.0758 0.96 0.0119 0.2167 0.0876-0.038 0.15403-0.5661 0.14751-0.528-7e-3 -0.7052-0.0782-0.3939-0.15937zm1.7739 3e-3c0.231-0.0924 0.507-0.0811 0.6133 0.0252 0.1064 0.10633-0.083 0.18197-0.42 0.16807-0.3728-0.0154-0.4486-0.0912-0.1933-0.19333zm112.79-3e-3c0.3113-0.0811 0.7433-0.0758 0.96 0.0119 0.2167 0.0876-0.038 0.15403-0.5661 0.14751-0.528-7e-3 -0.7052-0.0782-0.3939-0.15937zm1.7739 3e-3c0.231-0.0924 0.507-0.0811 0.6133 0.0252 0.1064 0.10633-0.083 0.18197-0.42 0.16807-0.3728-0.0154-0.4486-0.0912-0.1933-0.19333zm-170.19-1.4612c0.7847-0.836 1.4687-1.52 1.52-1.52 0.2403 0-0.014 0.28731-1.4266 1.6134l-1.52 1.4266zm114.56 0c0.7847-0.836 1.4687-1.52 1.52-1.52 0.2403 0-0.014 0.28731-1.4266 1.6134l-1.52 1.4266zm-54.227-0.88c0.3186-0.352 0.6512-0.64 0.7392-0.64s-0.1006 0.288-0.4192 0.64-0.6512 0.64-0.7392 0.64 0.1006-0.288 0.4192-0.64zm114.56 0c0.3186-0.352 0.6512-0.64 0.7392-0.64s-0.1006 0.288-0.4192 0.64-0.6512 0.64-0.7392 0.64 0.1006-0.288 0.4192-0.64zm-577.07-3.52c0-0.44 0.0726-0.62 0.16141-0.4 0.0888 0.22 0.0888 0.58 0 0.8s-0.16141 0.04-0.16141-0.4zm119.23 0.42807c0.22-0.0888 0.58-0.0888 0.8 0s0.04 0.16141-0.4 0.16141-0.62-0.0726-0.4-0.16141zm5.12 0c0.22-0.0888 0.58-0.0888 0.8 0s0.04 0.16141-0.4 0.16141-0.62-0.0726-0.4-0.16141zm201.3-1.2867c0.231-0.0924 0.507-0.0811 0.6133 0.0252 0.1064 0.10634-0.083 0.18197-0.42 0.16807-0.3728-0.0154-0.4486-0.0912-0.1933-0.19333zm-16.96-0.32c0.231-0.0924 0.507-0.0811 0.6133 0.0252 0.1064 0.10634-0.083 0.18197-0.42 0.16807-0.3728-0.0154-0.4486-0.0912-0.1933-0.19333zm15.04 0c0.231-0.0924 0.507-0.0811 0.6133 0.0252 0.1064 0.10634-0.083 0.18197-0.42 0.16807-0.3728-0.0154-0.4486-0.0912-0.1933-0.19333zm-12.334-0.32316c0.3113-0.0811 0.7433-0.0758 0.96 0.0119s-0.038 0.15403-0.5661 0.14751c-0.528-7e-3 -0.7052-0.0782-0.3939-0.15937zm9.28 0c0.3113-0.0811 0.7433-0.0758 0.96 0.0119s-0.038 0.15403-0.5661 0.14751c-0.528-7e-3 -0.7052-0.0782-0.3939-0.15937zm-189.53-0.21906c0-0.0665 0.252-0.31845 0.56-0.56 0.50755-0.39804 0.51885-0.38672 0.12083 0.12082-0.41805 0.53304-0.68083 0.70255-0.68083 0.43918zm136.64 0c0-0.0665 0.252-0.31845 0.56-0.56 0.50755-0.39804 0.51885-0.38672 0.12083 0.12082-0.41805 0.53304-0.68083 0.70255-0.68083 0.43918zm-487.59-0.42094c0.31136-0.0811 0.74336-0.0758 0.96 0.0119 0.21667 0.0876-0.0381 0.15403-0.56608 0.14751-0.528-7e-3 -0.70525-0.0782-0.39392-0.15937zm635.37 3e-3c0.231-0.0924 0.507-0.0811 0.6133 0.0252 0.1064 0.10633-0.083 0.18197-0.42 0.16807-0.3728-0.0154-0.4486-0.0912-0.1933-0.19333zm16.96 0c0.231-0.0924 0.507-0.0811 0.6133 0.0252 0.1064 0.10633-0.083 0.18197-0.42 0.16807-0.3728-0.0154-0.4486-0.0912-0.1933-0.19333zm97.6 0c0.231-0.0924 0.507-0.0811 0.6133 0.0252 0.1064 0.10633-0.083 0.18197-0.42 0.16807-0.3728-0.0154-0.4486-0.0912-0.1933-0.19333zm16.96 0c0.231-0.0924 0.507-0.0811 0.6133 0.0252 0.1064 0.10633-0.083 0.18197-0.42 0.16807-0.3728-0.0154-0.4486-0.0912-0.1933-0.19333zm-129.28-0.32c0.231-0.0924 0.507-0.0811 0.6133 0.0252 0.1064 0.10633-0.083 0.18197-0.42 0.16807-0.3728-0.0154-0.4486-0.0912-0.1933-0.19333zm11.82 7e-3c0.22-0.0888 0.58-0.0888 0.8 0s0.04 0.1614-0.4 0.1614-0.62-0.0726-0.4-0.1614zm102.74-7e-3c0.231-0.0924 0.507-0.0811 0.6133 0.0252 0.1064 0.10633-0.083 0.18197-0.42 0.16807-0.3728-0.0154-0.4486-0.0912-0.1933-0.19333zm11.82 7e-3c0.22-0.0888 0.58-0.0888 0.8 0s0.04 0.1614-0.4 0.1614-0.62-0.0726-0.4-0.1614zm-121.59-0.34279c0.7527-0.0676 1.9047-0.0667 2.56 2e-3 0.6554 0.0688 0.04 0.12407-1.3684 0.1229-1.408-1e-3 -1.9442-0.0574-1.1916-0.12502zm114.56 0c0.7527-0.0676 1.9047-0.0667 2.56 2e-3 0.6554 0.0688 0.04 0.12407-1.3684 0.1229-1.408-1e-3 -1.9442-0.0574-1.1916-0.12502zm-404.73-0.20627c0-0.0665 0.252-0.31845 0.56-0.56 0.50755-0.39804 0.51885-0.38672 0.12083 0.12082-0.41805 0.53304-0.68083 0.70255-0.68083 0.43918zm-44.54-0.73778c0.23101-0.0924 0.50701-0.0811 0.61334 0.0252 0.10634 0.10634-0.0827 0.18197-0.42 0.16807-0.3728-0.0154-0.4486-0.0912-0.19334-0.19333zm3.02-0.32199c0.308-0.0805 0.812-0.0805 1.12 0s0.056 0.14635-0.56 0.14635-0.868-0.0659-0.56-0.14635zm265.55-0.60608c0.015-0.37278 0.091-0.4486 0.1934-0.19333 0.092 0.231 0.081 0.507-0.025 0.61333-0.1063 0.10634-0.182-0.0827-0.1681-0.42zm108.48-0.32c0.015-0.37278 0.091-0.4486 0.1934-0.19333 0.092 0.231 0.081 0.507-0.025 0.61333-0.1063 0.10634-0.182-0.0827-0.1681-0.42zm114.56 0c0.015-0.37278 0.091-0.4486 0.1934-0.19333 0.092 0.231 0.081 0.507-0.025 0.61333-0.1063 0.10634-0.182-0.0827-0.1681-0.42zm-197.15 0.0658c0-0.0665 0.252-0.31845 0.56-0.56 0.5076-0.39804 0.5188-0.38672 0.1208 0.12082-0.418 0.53304-0.6808 0.70255-0.6808 0.43918zm114.56 0c0-0.0665 0.252-0.31845 0.56-0.56 0.5076-0.39804 0.5188-0.38672 0.1208 0.12082-0.418 0.53304-0.6808 0.70255-0.6808 0.43918zm-516-1.1592c0.31856-0.352 0.6512-0.64 0.7392-0.64s-0.10064 0.288-0.4192 0.64-0.6512 0.64-0.7392 0.64 0.10064-0.288 0.4192-0.64zm404.32-2.08c0.5971-0.616 1.1575-1.12 1.2455-1.12s-0.3284 0.504-0.9255 1.12-1.1575 1.12-1.2455 1.12 0.3284-0.504 0.9255-1.12zm114.56 0c0.5971-0.616 1.1575-1.12 1.2455-1.12s-0.3284 0.504-0.9255 1.12-1.1575 1.12-1.2455 1.12 0.3284-0.504 0.9255-1.12zm-225.76 0.16c0.31856-0.352 0.6512-0.64 0.7392-0.64s-0.10064 0.288-0.4192 0.64-0.6512 0.64-0.7392 0.64 0.10064-0.288 0.4192-0.64zm-215.68-0.95995c0.31856-0.352 0.6512-0.64 0.7392-0.64s-0.10064 0.288-0.4192 0.64-0.6512 0.64-0.7392 0.64 0.10064-0.288 0.4192-0.64zm-69.994 0.0881c0.57517-0.0712 1.4392-0.0697 1.92 3e-3 0.48086 0.073 0.0102 0.13129-1.0457 0.12949-1.056-2e-3 -1.4494-0.0615-0.87427-0.13275zm120.78-0.8881c6e-3 -0.528 0.0782-0.70526 0.15939-0.39391 0.0811 0.31135 0.0758 0.74335-0.0118 0.96s-0.15402-0.0381-0.14752-0.56609zm25.949-1.28c3e-3 -0.88 0.0645-1.202 0.13811-0.7156 0.0735 0.48642 0.0716 1.2064-4e-3 1.6-0.0759 0.39358-0.13613-4e-3 -0.13373-0.8844zm218.43 0.88c-0.398-0.50754-0.3868-0.51886 0.1208-0.12082 0.533 0.41804 0.7026 0.68082 0.4392 0.68082-0.066 0-0.3185-0.252-0.56-0.56zm34.281-0.20082c0-0.0665 0.252-0.31845 0.56-0.56 0.5076-0.39804 0.5188-0.38672 0.1208 0.12082-0.418 0.53304-0.6808 0.70255-0.6808 0.43918zm73.559-0.43918c-0.398-0.50754-0.3868-0.51886 0.1208-0.12082 0.533 0.41804 0.7026 0.68082 0.4392 0.68082-0.067 0-0.3185-0.252-0.56-0.56zm41.001 0.43918c0-0.0665 0.252-0.31845 0.56-0.56 0.5076-0.39804 0.5188-0.38672 0.1208 0.12082-0.418 0.53304-0.6808 0.70255-0.6808 0.43918zm73.559-0.43918c-0.398-0.50754-0.3868-0.51886 0.1208-0.12082 0.533 0.41804 0.7026 0.68082 0.4392 0.68082-0.066 0-0.3185-0.252-0.56-0.56zm-466.76-1.36c0-0.616 0.0659-0.868 0.14634-0.56 0.0805 0.308 0.0805 0.812 0 1.12s-0.14634 0.056-0.14634-0.56zm-9.3037-0.32c0-0.44 0.0726-0.62 0.16141-0.4 0.0888 0.22 0.0888 0.58 0 0.8s-0.16141 0.04-0.16141-0.4zm-264.67-0.82667c0.0154-0.37278 0.0912-0.4486 0.19334-0.19333 0.0924 0.231 0.0811 0.507-0.0253 0.61333-0.10633 0.10634-0.18198-0.0827-0.16809-0.42zm-47.04-0.32c0.0154-0.37278 0.0912-0.4486 0.19334-0.19333 0.0924 0.231 0.0811 0.507-0.0253 0.61333-0.10633 0.10634-0.18198-0.0827-0.16809-0.42zm-79.385-3.1733c0.41334-0.44 0.82355-0.8 0.91155-0.8s-0.17821 0.36-0.59155 0.8-0.82355 0.8-0.91155 0.8 0.17821-0.36 0.59155-0.8zm123.98-1.52-0.93987-1.04 1.04 0.93987c0.96944 0.87609 1.1871 1.1401 0.93987 1.1401-0.0551 0-0.52307-0.468-1.04-1.04zm-16.46-0.08c0.41334-0.44 0.82355-0.8 0.91155-0.8s-0.17821 0.36-0.59155 0.8-0.82355 0.8-0.91155 0.8 0.17821-0.36 0.59155-0.8zm294.72 0.35918c0-0.0664 0.252-0.31845 0.56-0.56 0.50755-0.39804 0.51885-0.38672 0.12083 0.12082-0.41805 0.53304-0.68083 0.70255-0.68083 0.43918zm-31.42-1.0578c0.23101-0.0924 0.50701-0.0811 0.61334 0.0252 0.10634 0.10634-0.0827 0.18197-0.42 0.16807-0.3728-0.0154-0.4486-0.0912-0.19334-0.19333zm2.24-0.32c0.23101-0.0924 0.50701-0.0811 0.61334 0.0252 0.10634 0.10634-0.0827 0.18197-0.42 0.16807-0.3728-0.0154-0.4486-0.0912-0.19334-0.19333zm30.46 0.0978c0-0.0664 0.252-0.31845 0.56-0.56 0.50755-0.39804 0.51885-0.38672 0.12083 0.12082-0.41805 0.53304-0.68083 0.70255-0.68083 0.43918zm-397.5-0.41778c0.23101-0.0924 0.50701-0.0811 0.61334 0.0252 0.10634 0.10634-0.0827 0.18197-0.42 0.16807-0.3728-0.0154-0.4486-0.0912-0.19334-0.19333zm66.88 0c0.23101-0.0924 0.50701-0.0811 0.61334 0.0252 0.10634 0.10634-0.0827 0.18197-0.42 0.16807-0.3728-0.0154-0.4486-0.0912-0.19334-0.19333zm302.7 7e-3c0.22-0.0888 0.58-0.0888 0.8 0s0.04 0.16141-0.4 0.16141-0.62-0.0726-0.4-0.16141zm3.3661-0.32983c0.31136-0.0811 0.74336-0.0758 0.96 0.0119 0.21667 0.0876-0.0381 0.15403-0.56608 0.14751-0.528-7e-3 -0.70525-0.0782-0.39392-0.15937zm3.9977-0.32456c0.39805-0.0765 0.97405-0.0736 1.28 6e-3 0.30592 0.0801-0.0198 0.14272-0.72374 0.13917-0.704-4e-3 -0.95434-0.0691-0.55626-0.14563zm237.78 8e-3c0.231-0.0924 0.507-0.0811 0.6133 0.0252 0.1064 0.10633-0.083 0.18196-0.42 0.16807-0.3728-0.0154-0.4486-0.0912-0.1933-0.19333zm-27.2-0.32c0.231-0.0924 0.507-0.0811 0.6133 0.0252 0.1064 0.10633-0.083 0.18196-0.42 0.16807-0.3728-0.0154-0.4486-0.0912-0.1933-0.19333zm108.8 0c0.231-0.0924 0.507-0.0811 0.6133 0.0252 0.1064 0.10633-0.083 0.18196-0.42 0.16807-0.3728-0.0154-0.4486-0.0912-0.1933-0.19333zm24.96 0c0.231-0.0924 0.507-0.0811 0.6133 0.0252 0.1064 0.10633-0.083 0.18196-0.42 0.16807-0.3728-0.0154-0.4486-0.0912-0.1933-0.19333zm89.6 0c0.231-0.0924 0.507-0.0811 0.6133 0.0252 0.1064 0.10633-0.083 0.18196-0.42 0.16807-0.3728-0.0154-0.4486-0.0912-0.1933-0.19333zm24.96 0c0.231-0.0924 0.507-0.0811 0.6133 0.0252 0.1064 0.10633-0.083 0.18196-0.42 0.16807-0.3728-0.0154-0.4486-0.0912-0.1933-0.19333zm-728.64-0.32c0.23101-0.0924 0.50701-0.0811 0.61334 0.0252 0.10634 0.10633-0.0827 0.18196-0.42 0.16807-0.3728-0.0154-0.4486-0.0912-0.19334-0.19333zm4.8 0c0.23101-0.0924 0.50701-0.0811 0.61334 0.0252 0.10634 0.10633-0.0827 0.18196-0.42 0.16807-0.3728-0.0154-0.4486-0.0912-0.19334-0.19333zm477.76 0c0.231-0.0924 0.507-0.0811 0.6133 0.0252 0.1064 0.10633-0.083 0.18196-0.42 0.16807-0.3728-0.0154-0.4486-0.0912-0.1933-0.19333zm21.12 0c0.231-0.0924 0.507-0.0811 0.6133 0.0252 0.1064 0.10633-0.083 0.18196-0.42 0.16807-0.3728-0.0154-0.4486-0.0912-0.1933-0.19333zm87.34 7e-3c0.22-0.0888 0.58-0.0888 0.8 0s0.04 0.1614-0.4 0.1614-0.62-0.0726-0.4-0.1614zm20.82-7e-3c0.231-0.0924 0.507-0.0811 0.6133 0.0252 0.1064 0.10633-0.083 0.18196-0.42 0.16807-0.3728-0.0154-0.4486-0.0912-0.1933-0.19333zm93.74 7e-3c0.22-0.0888 0.58-0.0888 0.8 0s0.04 0.1614-0.4 0.1614-0.62-0.0726-0.4-0.1614zm20.82-7e-3c0.231-0.0924 0.507-0.0811 0.6133 0.0252 0.1064 0.10633-0.083 0.18196-0.42 0.16807-0.3728-0.0154-0.4486-0.0912-0.1933-0.19333zm-241.13-0.32316c0.3113-0.0811 0.7433-0.0758 0.96 0.0119s-0.038 0.15404-0.5661 0.14752c-0.528-7e-3 -0.7052-0.0782-0.3939-0.15937zm15.36 0c0.3113-0.0811 0.7433-0.0758 0.96 0.0119s-0.038 0.15404-0.5661 0.14752c-0.528-7e-3 -0.7052-0.0782-0.3939-0.15937zm93.12 0c0.3113-0.0811 0.7433-0.0758 0.96 0.0119s-0.038 0.15404-0.5661 0.14752c-0.528-7e-3 -0.7052-0.0782-0.3939-0.15937zm15.194 0.01c0.22-0.0888 0.58-0.0888 0.8 0s0.04 0.16141-0.4 0.16141-0.62-0.0726-0.4-0.16141zm99.366-0.01c0.3113-0.0811 0.7433-0.0758 0.96 0.0119s-0.038 0.15404-0.5661 0.14752c-0.528-7e-3 -0.7052-0.0782-0.3939-0.15937zm15.194 0.01c0.22-0.0888 0.58-0.0888 0.8 0s0.04 0.16141-0.4 0.16141-0.62-0.0726-0.4-0.16141zm-232.49-0.34504c1.1803-0.0614 3.1963-0.0618 4.48-9.6e-4 1.2837 0.0609 0.318 0.11112-2.146 0.11162-2.464 6.4e-4 -3.5143-0.0493-2.334-0.11071zm108.49-3.2e-4c1.188-0.0616 3.132-0.0616 4.32 0s0.216 0.11194-2.16 0.11194-3.348-0.0504-2.16-0.11194zm114.56 0c1.188-0.0616 3.132-0.0616 4.32 0s0.216 0.11194-2.16 0.11194-3.348-0.0504-2.16-0.11194zm-417.74-0.6213c0.23101-0.0924 0.50701-0.0811 0.61334 0.0252 0.10634 0.10633-0.0827 0.18196-0.42 0.16807-0.3728-0.0154-0.4486-0.0912-0.19334-0.19333zm7.36 0c0.23101-0.0924 0.50701-0.0811 0.61334 0.0252 0.10634 0.10633-0.0827 0.18196-0.42 0.16807-0.3728-0.0154-0.4486-0.0912-0.19334-0.19333zm-4.34-0.33061c0.484-0.0733 1.276-0.0733 1.76 0s0.088 0.13331-0.88 0.13331-1.364-0.06-0.88-0.13331z" fill="#6d7a85"/>
  <path d="m153.02 304.81c-5.1188-0.55161-14.757-2.8316-19.618-4.6407-11.329-4.2165-23.475-13.106-30.789-22.533-7.3256-9.4426-11.13-17.122-13.752-27.757-2.6123-10.599-2.4301-6.4168-2.4301-55.763 0-41.393 0.03508-44.199 0.59216-47.354 0.89958-5.0955 2.9468-13.095 4.2417-16.574 4.2088-11.309 13.105-23.461 22.526-30.77 9.3346-7.2418 16.928-11.027 27.359-13.64 10.924-2.736 6.6311-2.5417 56.161-2.5417 41.315 0 44.205 0.03598 47.36 0.58951 5.2464 0.92048 13.937 3.1939 17.281 4.5208 11.462 4.5477 22.883 13.002 30.057 22.25 7.4706 9.6296 11.496 17.915 14.069 28.96 2.2801 9.7869 2.1127 5.464 2.1127 54.56s0.16739 44.773-2.1127 54.56c-1.3879 5.9574-2.8888 10.282-5.22 15.04-4.7467 9.6885-12.194 19.021-20.027 25.098-9.6302 7.4711-17.918 11.497-28.96 14.068-9.6371 2.244-5.1054 2.0614-52.96 2.1341-23.848 0.0362-44.499-0.0569-45.891-0.20692zm90.115-9.7314c28.686-3.7868 51.352-26.453 55.139-55.139 0.71133-5.3885 0.71133-86.259 0-91.647-3.448-26.12-22.749-47.641-48.323-53.881-7.1303-1.7397-7.0042-1.7355-52.64-1.7355-35.812 0-42.766 0.07325-45.896 0.4835-18.968 2.4865-35.921 13.514-46.161 30.028-4.7744 7.6994-7.8794 16.663-9.0485 26.12-0.46049 3.7253-0.46049 85.892 0 89.617 3.6173 29.263 26.073 52.177 55.025 56.149 4.8084 0.65955 86.912 0.6645 91.904 6e-3z" fill="#1485b9"/>
  <path d="m902.27 290.47c-3.2474-1.1593-5.4456-4.4633-5.4456-8.1851 0-2.3791 0.86547-4.6817 6.0776-16.169 2.8349-6.248 5.0947-11.576 5.0219-11.84-0.0729-0.264-6.7959-15.816-14.94-34.56-8.1442-18.744-15.095-34.872-15.446-35.84-1.4217-3.9174-0.53056-8.4738 2.0972-10.723 1.9506-1.6696 3.9674-2.2381 7.9096-2.2295 4.7571 0.0104 6.6914 0.99672 8.9889 4.5837 0.49005 0.76507 5.817 13.725 11.838 28.8 6.0207 15.075 11.045 27.521 11.165 27.658 0.12019 0.13706 5.2935-12.175 11.496-27.36 7.0828-17.339 11.716-28.264 12.455-29.369 1.5391-2.3012 3.5764-3.6466 6.3001-4.1606 2.5842-0.4876 5.7123-0.28212 7.2115 0.47371 3.9292 1.9809 5.688 6.6116 4.2942 11.305-0.54851 1.847-43.234 99.488-44.563 101.93-1.2898 2.3753-3.1048 4.241-5.053 5.1941-2.4258 1.1868-6.8104 1.4137-9.4069 0.48681zm-341.5-31.233c-6.0569-1.0193-10.211-3.0531-14.037-6.8718-4.0429-4.0358-6.1693-8.4624-7.577-15.773-0.52934-2.7492-0.56912-6.2101-0.56912-49.516 0-44.704 0.024-46.629 0.60019-48.284 0.69754-2.0032 2.3607-3.9798 4.0916-4.8629 1.9699-1.005 5.6073-1.4337 8.4345-0.9942 3.9271 0.61053 6.1076 2.1474 7.5773 5.3406l0.73638 1.6 0.16739 45.28c0.15584 42.163 0.20653 45.412 0.73603 47.2 0.89943 3.0368 2.4662 5.6072 4.2418 6.9588 2.6093 1.9863 4.0265 2.3173 10.055 2.3487 2.904 0.0151 5.4567 0.0511 5.6726 0.08 2.0053 0.2683 2.5429 9.9338 0.74822 13.452-0.81593 1.5994-2.5919 3.1331-4.0966 3.5378-3.8062 1.0236-12.196 1.2756-16.781 0.50396zm58.53 0.0153c-10.128-1.7837-18.691-7.6223-22.471-15.321-2.1334-4.3447-2.559-6.2782-2.548-11.575 0.0106-5.1396 0.4536-7.2846 2.2795-11.04 1.7835-3.6681 4.5474-6.2257 9.1331-8.4515 7.6668-3.7213 16.969-5.2047 34.974-5.5768l10.24-0.21167-0.0625-3.8746c-0.15433-9.5709-3.0587-14.023-10.338-15.845-2.9386-0.73567-11.549-0.56567-15.985 0.31563-4.4013 0.87431-8.7349 2.2289-12.646 3.9528-5.1922 2.2887-8.5284 1.9577-10.717-1.063-1.3644-1.8835-1.71-3.2283-1.5439-6.0081 0.26973-4.5139 2.0551-6.5622 7.5862-8.7031 6.7277-2.6041 13.847-4.329 21.104-5.1131 4.4616-0.48208 13.108-0.2299 17.162 0.50052 6.3209 1.139 12.794 3.9612 16.262 7.0899 3.7086 3.3462 6.8568 8.5444 8.2049 13.548 1.5403 5.7165 1.6095 7.1821 1.6116 34.102 3e-3 22.244-0.0599 25.51-0.50909 27.023-1.2748 4.2928-4.3542 6.3955-9.3661 6.3955-4.573 0-7.8632-1.8285-9.3351-5.1879-0.60317-1.3766-0.76781-2.4228-0.88323-5.6121-0.078-2.156-0.26848-3.92-0.42323-3.92-0.15476 0-0.28138 0.17162-0.28138 0.38139 0 0.73423-2.5691 4.697-4.2069 6.489-3.0344 3.3201-6.8703 5.6432-11.695 7.0826-2.42 0.72202-3.5422 0.85646-7.9384 0.95102-3.3825 0.0728-5.9639-0.0385-7.6068-0.32786zm17.367-15.199c4.715-1.2978 9.5602-5.3986 11.811-9.9966 1.7109-3.4947 2.2212-5.6384 2.4757-10.401l0.21063-3.9399h-6.7513c-10.954 0-18.951 0.93971-22.915 2.6925-4.5136 1.9961-6.6689 5.9917-5.9554 11.04 0.70025 4.9541 3.9238 8.7741 8.8039 10.433 3.0473 1.0358 8.8852 1.1172 12.32 0.17175zm93.28 15.316c-13.444-1.8471-21.762-8.3975-25.095-19.762-1.3903-4.7403-1.4016-4.9401-1.5963-28.372l-0.1888-22.72-6.4-0.16041c-6.9691-0.17467-7.8643-0.37441-9.503-2.1202-1.3785-1.4685-1.9075-3.1268-1.9075-5.9792 0-2.1835 0.13399-2.8214 0.91213-4.343 0.78006-1.5253 1.1831-1.9221 2.7838-2.7407 1.8533-0.94782 1.9327-0.9585 8.0565-1.0844l6.1847-0.12719 0.0967-9.9624c0.0934-9.6252 0.12173-10.018 0.83792-11.6 0.9144-2.0204 2.2877-3.3834 4.3787-4.3458 1.3991-0.64391 2.1023-0.73639 5.6-0.73639 3.3975 0 4.2203 0.1019 5.4624 0.67651 1.9908 0.921 3.6609 2.7281 4.5143 4.8848 0.66836 1.689 0.71927 2.387 0.8354 11.453l0.12364 9.6543 10.772 0.10629c10.196 0.1006 10.849 0.14263 12.212 0.78599 3.0793 1.4535 4.146 3.3777 4.146 7.4791 0 3.0607-0.56067 4.6941-2.1101 6.1476-1.8539 1.739-2.7356 1.8524-14.396 1.8524h-10.68l5e-3 20.08c6e-3 22.056 0.0555 22.738 1.9221 26.539 2.9401 5.9874 9.973 8.0236 20.856 6.0384 3.0014-0.54753 3.143-0.54661 4.3111 0.0282 1.8644 0.91741 2.4669 2.2747 2.6118 5.8833 0.21607 5.3797-1.1972 8.9711-4.1092 10.442-3.4907 1.7631-14.561 2.8374-20.637 2.0025zm305.76 0.15326c-13.31-0.9104-24.196-4.4138-32.96-10.608-3.896-2.7536-9.8066-8.6645-12.558-12.559-4.3565-6.1662-8.025-14.865-9.686-22.967-1.0887-5.3109-1.4329-8.3951-1.6506-14.793-0.45892-13.486 1.8671-25.411 6.9601-35.68 2.854-5.7548 5.6635-9.6891 10.054-14.08 9.1744-9.1744 21.038-14.58 35.427-16.143 4.0147-0.43598 13.487-0.43335 17.465 5e-3 11.313 1.2462 23.668 5.796 29.169 10.742 2.3571 2.1192 3.3693 4.411 3.3744 7.64 0 2.2643-0.1212 2.8216-1.0566 4.7226-1.7453 3.5469-5.4502 5.7029-8.988 5.2303-1.4849-0.19836-2.2533-0.54809-8.3514-3.8011-6.3801-3.4035-11.557-4.6818-20-4.9384-12.638-0.38407-21.269 2.3976-28.388 9.1488-4.2238 4.0055-6.8804 8.2399-9.0126 14.365-3.6029 10.351-4.0078 25.495-0.9853 36.851 1.8421 6.9211 4.5734 11.998 8.9056 16.554 5.2721 5.5444 10.845 8.3865 19.401 9.8945 4.4142 0.77799 12.491 0.71131 17.28-0.14266 6.3175-1.1265 9.445-2.3277 18.582-7.1373 0.628-0.33061 1.924-0.76443 2.88-0.96404 3.4155-0.71321 7.1635 1.1607 9.0653 4.5324 0.9171 1.626 0.9927 1.9915 0.9927 4.8 0 2.7707-0.084 3.1916-0.948 4.7515-3.3371 6.0247-16.338 12-30.405 13.975-3.3593 0.47157-11.528 0.80825-14.567 0.6004zm104.96 3e-3c-13.798-0.9185-25.584-3.9324-34.486-8.8181-3.9968-2.1937-6.4657-4.5651-7.2827-6.9951-1.2463-3.7069-0.519-8.0425 1.7891-10.665 2.537-2.8822 5.7763-3.5062 9.1478-1.7624 9.4252 4.8751 12.085 5.9693 18.031 7.4179 6.2529 1.5232 10.146 1.95 17.76 1.9469 7.7971-3e-3 11.082-0.43879 15.582-2.0666 4.6272-1.6736 8.1038-4.6773 9.9864-8.6282 0.9376-1.9676 0.9912-2.2875 0.9912-5.92 0-3.6188-0.054-3.9476-0.9455-5.7078-1.831-3.6169-5.4777-6.087-12.065-8.1726-1.7-0.53818-8.612-2.139-15.36-3.5574-6.7481-1.4184-13.637-2.9483-15.309-3.3997-14.844-4.0078-24.23-12.06-27.179-23.319-1.5351-5.8605-1.5471-12.917-0.032-18.84 3.3206-12.983 14.636-22.978 30.442-26.889 9.6116-2.3781 22.656-2.4361 33.237-0.14796 9.4838 2.0509 20.824 7.5655 23.326 11.344 2.5309 3.8209 1.8849 9.368-1.4299 12.278-1.6263 1.4279-3.129 1.9997-5.1909 1.975-2.232-0.0267-2.943-0.27569-7.778-2.7242-6.8607-3.4744-12.487-4.9871-21.051-5.66-8.1439-0.63987-14.973 0.38061-20.344 3.0401-6.686 3.3107-10.08 8.4354-10.08 15.22 0 8.079 4.442 12.594 15.105 15.352 1.9883 0.51432 8.151 1.8836 13.695 3.043 15.775 3.2987 20.172 4.6058 26.68 7.931 12.251 6.2598 17.805 16.363 16.515 30.043-1.699 18.016-15.886 30.184-38.715 33.204-2.6701 0.35329-12.307 0.65899-15.04 0.47708zm114.56 0c-13.798-0.9185-25.584-3.9324-34.486-8.8181-3.9968-2.1937-6.4657-4.5651-7.2827-6.9951-1.2463-3.7069-0.519-8.0425 1.7891-10.665 2.537-2.8822 5.7763-3.5062 9.1478-1.7624 9.4252 4.8751 12.085 5.9693 18.031 7.4179 6.2529 1.5232 10.146 1.95 17.76 1.9469 7.7971-3e-3 11.082-0.43879 15.582-2.0666 4.6272-1.6736 8.1038-4.6773 9.9864-8.6282 0.9376-1.9676 0.9912-2.2875 0.9912-5.92 0-3.6188-0.054-3.9476-0.9455-5.7078-1.831-3.6169-5.4777-6.087-12.065-8.1726-1.7-0.53818-8.612-2.139-15.36-3.5574-6.7481-1.4184-13.637-2.9483-15.309-3.3997-14.844-4.0078-24.23-12.06-27.179-23.319-1.5351-5.8605-1.5471-12.917-0.032-18.84 3.3206-12.983 14.636-22.978 30.442-26.889 9.6116-2.3781 22.656-2.4361 33.237-0.14796 9.4838 2.0509 20.824 7.5655 23.326 11.344 2.5309 3.8209 1.8849 9.368-1.4299 12.278-1.6263 1.4279-3.129 1.9997-5.1909 1.975-2.232-0.0267-2.943-0.27569-7.778-2.7242-6.8607-3.4744-12.487-4.9871-21.051-5.66-8.1439-0.63987-14.973 0.38061-20.344 3.0401-6.686 3.3107-10.08 8.4354-10.08 15.22 0 8.079 4.442 12.594 15.105 15.352 1.9883 0.51432 8.151 1.8836 13.695 3.043 15.775 3.2987 20.172 4.6058 26.68 7.931 12.251 6.2598 17.805 16.363 16.515 30.043-1.699 18.016-15.886 30.184-38.715 33.204-2.6701 0.35329-12.307 0.65899-15.04 0.47708zm-815.36-0.4411c-3.2725-0.42303-5.9168-1.9984-7.4135-4.4167-1.5889-2.5672-1.5389-0.68247-1.5389-57.992 0-56.377-0.0304-55.093 1.3718-57.803 0.77594-1.4997 3.1691-3.4496 5.0845-4.1428 1.6246-0.58794 3.0909-0.61747 34.81-0.70108 22.564-0.0595 33.639 0.0216 34.76 0.25439 3.8021 0.78932 5.7552 3.1093 6.1018 7.2481 0.3896 4.6521-1.072 7.8109-4.3182 9.3327l-1.8178 0.85213-53.925 0.1904 0.1654 35.01 25.44 0.16c27.914 0.17556 26.577 0.0769 28.59 2.1086 1.7321 1.7482 1.9703 2.5376 1.9703 6.5314 0 3.1994-0.0937 3.8552-0.71706 5.0215-0.7495 1.4022-2.1389 2.6411-3.7644 3.3566-0.75645 0.33298-6.2897 0.4557-26.239 0.58196l-25.28 0.16-0.16154 23.52c-0.1478 21.521-0.20976 23.644-0.72892 24.978-1.2651 3.2507-3.875 5.1653-7.8183 5.7355-1.1942 0.17267-2.3152 0.29791-2.4912 0.27832-0.176-0.0196-1.112-0.13799-2.08-0.26313zm341.68-0.0194c-3.1174-0.77927-5.5664-2.9803-6.5592-5.8952-0.5024-1.4751-0.55763-4.3329-0.64176-33.214l-0.0921-31.6h-5.3908c-5.9396 0-7.4612-0.30945-9.1083-1.8524-1.5208-1.4246-2.2325-3.4007-2.2369-6.2114-3e-3 -2.1034 0.13443-2.7343 0.94188-4.3131 0.8152-1.594 1.202-1.9804 2.8015-2.7984 1.803-0.9221 2.0128-0.95291 7.3947-1.0862l5.539-0.13718 0.21366-3.2406c0.96458-14.629 5.8524-23.462 16.183-29.244 5.6963-3.1883 13.968-5.1506 24.09-5.7146 4.0723-0.22693 5.7502 0.0886 7.2695 1.367 3.3176 2.7916 3.4141 9.1945 0.18726 12.421-1.5114 1.5114-2.834 1.9552-6.7468 2.2637-10.912 0.86044-16.743 4.7494-18.563 12.38-0.26317 1.1034-0.57168 3.7566-0.68557 5.8961l-0.2071 3.89 18.222 0.22007 1.8898 0.96685c1.6367 0.83737 2.0164 1.2145 2.8356 2.8162 0.81004 1.5839 0.94438 2.203 0.93603 4.3131-0.0109 2.746-0.58019 4.4678-1.9651 5.9432-1.7432 1.8571-2.263 1.9461-12.383 2.1206l-9.28 0.16-0.16 32.023-0.16 32.023-0.96333 1.8834c-1.0574 2.0674-2.9316 3.73-4.8848 4.3335-1.5722 0.48575-6.9524 0.66759-8.4769 0.2865zm63.237-0.0195c-4.4618-0.55295-7.3675-3.4009-8.392-8.2255-0.49738-2.342-0.50807-68.906-0.0115-71.593 0.71561-3.8712 3.0255-6.7434 6.1754-7.6788 2.0623-0.61244 6.6679-0.60698 8.7467 0.0104 2.2998 0.68295 4.6451 2.8686 5.5913 5.2104l0.73792 1.8265 0.0868 35.68c0.0848 34.85 0.072 35.729-0.55072 37.779-0.35068 1.1546-1.0717 2.6985-1.6023 3.4309-1.1705 1.6158-3.8158 3.1898-5.7724 3.4345-0.7928 0.0992-1.8015 0.22274-2.2415 0.27461-0.44 0.0519-1.6855-0.0154-2.7678-0.14955zm-1.3785-104.97c-5.8692-0.97299-9.325-5.0443-9.3416-11.005-9e-3 -3.1996 0.43927-5.001 1.7093-6.8703 1.2769-1.8792 2.4417-2.7944 4.849-3.8094 1.8134-0.76463 2.3253-0.82921 6.4497-0.81355 3.84 0.0146 4.7351 0.1178 6.2654 0.72256 2.4212 0.95682 4.2366 2.5924 5.3151 4.7887 0.83424 1.6989 0.89949 2.1103 0.89949 5.6718 0 3.4671-0.0806 4.0109-0.82989 5.6-1.5315 3.248-3.8608 4.8964-7.95 5.6259-2.7308 0.4872-4.8158 0.5126-7.3664 0.0898z" fill="#1795d0"/>
 </g>
</svg>
