<svg version="1.1" viewBox="0 0 293.09 291.89" xmlns="http://www.w3.org/2000/svg">
 <path transform="translate(0 .05)" d="M283.71,145.92c-.5,75.92-61,137.52-138.57,137-37.29-.27-69.62-14-95.88-40.47C22,214.88,8.65,181.19,9.54,142.51,10.38,105.89,24,74.12,50.15,48.37,77.7,21.21,111.36,7.9,150,8.83c36.48.87,68.07,14.53,93.87,40.42S283.36,108.76,283.71,145.92Z" fill="#1585b9"/>
 <path transform="translate(0 .05)" d="M146.48,275.83A130,130,0,0,1,16.59,145.72v-.11C16.64,73.83,75,15.83,147,15.83c71.46.06,129.54,58.48,129.46,130.25S218.17,275.83,146.48,275.83Z" fill="#1895d0"/>
 <path transform="translate(0 .05)" d="M63.15,145.71c0-9.16.06-18.32,0-27.48a62.26,62.26,0,0,1,2.62-16.91A50.78,50.78,0,0,1,76.11,82.23a52.34,52.34,0,0,1,25-16.91,56.6,56.6,0,0,1,13.29-2.7c1.67-.11,3.34-.17,5-.17,17.48,0,35,.06,52.44,0a68.85,68.85,0,0,1,17.7,2.26,53,53,0,0,1,19.15,9.73,55,55,0,0,1,16.24,20.81c2.11,4.49,3.12,9.35,4.05,14.2a44.53,44.53,0,0,1,.73,8.43c0,17.88-.06,35.76,0,53.64a68.59,68.59,0,0,1-2,16.41A54.74,54.74,0,0,1,192.16,226a58.66,58.66,0,0,1-13.63,2.84c-2.08.16-4.14.17-6.21.18h-51.6a68.9,68.9,0,0,1-16.3-2A53.23,53.23,0,0,1,83,216.1a55.07,55.07,0,0,1-15-19.81c-2.11-4.5-3.13-9.35-4.07-14.2a44.12,44.12,0,0,1-.74-8.54Q63.15,159.62,63.15,145.71Z" fill="#1585b9"/>
 <path transform="translate(0 .05)" d="M70.35,145.72V117.28A48.47,48.47,0,0,1,87,81.26a45.81,45.81,0,0,1,23.34-10.94,52.89,52.89,0,0,1,8.19-.7c19.08,0,38.16-.07,57.24,0a45.28,45.28,0,0,1,17.49,3.78,48,48,0,0,1,16.91,12,46.93,46.93,0,0,1,9.13,15,51.34,51.34,0,0,1,3,12.12,30.85,30.85,0,0,1,.26,3.81c0,19.6.08,39.2,0,58.8a45.08,45.08,0,0,1-3.76,17.37,47.7,47.7,0,0,1-12,16.92,47.12,47.12,0,0,1-14.87,9.16,54.71,54.71,0,0,1-11.64,3,25.2,25.2,0,0,1-3.68.27H115.52a38.47,38.47,0,0,1-10.3-1.76,47.24,47.24,0,0,1-16.48-8.42,47.91,47.91,0,0,1-12.5-14.76,49,49,0,0,1-5.35-15.48,36.44,36.44,0,0,1-.56-6.29C70.37,165.32,70.35,155.52,70.35,145.72Z" fill="#1caff5"/>
 <path transform="translate(0 .05)" d="m189.65 145.29a8.07 8.07 0 0 1-2.26 5.41l-36 36a7.75 7.75 0 0 1-11 0q-18-17.92-35.89-35.89a7.77 7.77 0 0 1-0.08-11l0.08-0.08 35.89-35.91a7.78 7.78 0 0 1 11-0.15l0.15 0.15 35.72 35.8a8.22 8.22 0 0 1 2.39 5.67z" fill="#199cda"/>
 <path transform="translate(0 .05)" d="M145.85,108.59c.49.07.7.45,1,.72L166,128.48c5.29,5.28,10.57,10.59,15.88,15.84.69.68.77,1,0,1.77q-17.55,17.53-35.08,35.13c-.67.67-1,.67-1.69,0q-17.52-17.6-35.11-35.13c-.64-.63-.75-1,0-1.69q17.59-17.57,35.18-35.18C145.39,109,145.63,108.83,145.85,108.59Z" fill="#76cff9"/>
</svg>
