<svg version="1.1" viewBox="0 0 320 320" xmlns="http://www.w3.org/2000/svg">
 <path d="m142.66 303.21c-34.529-5.0757-60.488-17.975-84.014-41.749-17.37-17.552-27.06-33.102-34.368-55.15-5.9791-18.038-7.5038-29.223-6.7989-49.874 0.32132-9.4137 1.2517-20.041 2.0675-23.616 13.046-57.168 55.12-98.962 111.93-111.18 14.545-3.128 40.796-3.1361 55.292-0.01719 19.805 4.261 37.704 11.807 53.222 22.438 10.097 6.9171 25.811 22.147 33.798 32.757 12.259 16.284 21.871 38.658 25.992 60.5 2.2782 12.074 2.2595 35.709-0.0384 48.433-10.505 58.173-54.001 102.82-112.58 115.56-7.2842 1.5843-37.78 2.8832-44.5 1.8954z" fill="#76cff9"/>
 <path d="m143.16 302.77c-32.555-4.0337-60.97-17.871-84.038-40.924-20.251-20.238-32.658-43.116-39.127-72.15-3.266-14.658-3.2799-41.559-0.0292-56.569 6.1766-28.521 18.938-52.024 39.311-72.401 20.445-20.449 47.832-34.594 76.383-39.452 13.034-2.2179 34.849-2.2164 47.433 0.0033 83.95 14.807 136.15 98.337 112.54 180.07-6.1602 21.32-17.87 41.49-33.701 58.049-20.484 21.427-46.064 35.571-74.99 41.466-11.666 2.3774-32.627 3.2917-43.78 1.9097zm35.5-161.95-19.988-20.006-40 40 39.975 40.013 40-40z" fill="#1aaef4"/>
 <path d="m138.02 301.75c-45.578-6.6945-86.815-37.352-106.79-79.388-9.2008-19.366-13.407-38.503-13.415-61.04-9e-3 -23.742 4.6428-43.197 15.377-64.316 20.679-40.683 59.741-68.771 105.46-75.833 13.11-2.025 37.236-1.2911 50 1.521 53.174 11.715 94.35 51.189 107.93 103.47 20.785 79.997-31.789 160.89-113.82 175.12-9.5711 1.6604-34.842 1.925-44.757 0.46871zm66.138-59.351c13.753-4.4207 26.733-15.141 32.336-26.704 5.3273-10.995 5.6642-14.229 5.6642-54.373s-0.33688-43.378-5.6642-54.373c-3.5348-7.2955-13.941-18.108-21.065-21.888-12.395-6.5764-13.753-6.7391-56.271-6.7391s-43.875 0.16264-56.271 6.7391c-7.1241 3.7797-17.53 14.592-21.065 21.888-5.3273 10.995-5.6642 14.229-5.6642 54.373s0.33688 43.378 5.6642 54.373c3.5546 7.3364 13.946 18.118 21.065 21.856 12.873 6.7589 16.335 7.1563 59.771 6.8609 31.237-0.21246 36.728-0.47874 41.5-2.0128zm-47.577-34.355c-1.1422-0.17372-11.83-10.106-23.75-22.071-19.721-19.795-21.673-22.062-21.673-25.157 0-3.0974 1.9642-5.372 21.932-25.398 20.548-20.609 22.161-21.996 25.568-21.996s5.0199 1.3872 25.568 21.996c19.967 20.026 21.932 22.301 21.932 25.398 0 3.0953-1.9498 5.3592-21.628 25.112-11.896 11.94-22.583 21.872-23.75 22.071-1.167 0.19858-3.0563 0.21893-4.1985 0.0452zm23.077-27.222 19.981-20-19.981-20c-10.99-11-20.44-20-21-20s-10.01 9-21 20l-19.981 20 19.981 20c10.99 11 20.44 20 21 20s10.01-9 21-20z" fill="#1795d0"/>
 <path d="m120.16 251.69c-19.902-3.2507-37.154-15.592-45.433-32.5-6.0267-12.308-6.5669-17.068-6.5669-57.868 0-33.576 0.18882-37.918 1.9481-44.797 6.4089-25.058 24.817-41.523 51.052-45.662 8.4415-1.3318 67.559-1.3318 76 0 20.869 3.2926 37.961 15.289 46.433 32.591 6.0267 12.308 6.5669 17.068 6.5669 57.868 0 33.576-0.18882 37.918-1.9481 44.797-6.4089 25.058-24.817 41.523-51.052 45.662-7.8754 1.2425-69.279 1.1695-77-0.0915zm82.297-8.3569c17.838-4.6463 32.495-18.503 37.964-35.891 2.1591-6.865 2.2393-8.5172 2.2393-46.12s-0.0802-39.255-2.2393-46.12c-5.4687-17.388-20.125-31.245-37.964-35.891-8.341-2.1726-78.253-2.1726-86.594 0-17.838 4.6463-32.495 18.503-37.964 35.891-2.1591 6.865-2.2393 8.5172-2.2393 46.12s0.0802 39.255 2.2393 46.12c5.4 17.17 20.011 31.121 37.535 35.841 7.8344 2.1101 78.956 2.1509 87.022 0.0499z" fill="#1484b8"/>
 <path d="m138.02 301.75c-45.578-6.6945-86.815-37.352-106.79-79.388-9.2008-19.366-13.407-38.503-13.415-61.04-9e-3 -23.742 4.6428-43.197 15.377-64.316 20.679-40.683 59.741-68.771 105.46-75.833 13.11-2.025 37.236-1.2911 50 1.521 53.174 11.715 94.35 51.189 107.93 103.47 20.785 79.997-31.789 160.89-113.82 175.12-9.5711 1.6604-34.842 1.925-44.757 0.46871zm66.138-59.351c13.753-4.4207 26.733-15.141 32.336-26.704 5.3273-10.995 5.6642-14.229 5.6642-54.373s-0.33688-43.378-5.6642-54.373c-3.5348-7.2955-13.941-18.108-21.065-21.888-12.395-6.5764-13.753-6.7391-56.271-6.7391s-43.875 0.16264-56.271 6.7391c-7.1241 3.7797-17.53 14.592-21.065 21.888-5.3273 10.995-5.6642 14.229-5.6642 54.373s0.33688 43.378 5.6642 54.373c3.5546 7.3364 13.946 18.118 21.065 21.856 12.873 6.7589 16.335 7.1563 59.771 6.8609 31.237-0.21246 36.728-0.47874 41.5-2.0128zm-47.577-34.355c-1.1422-0.17372-11.83-10.106-23.75-22.071-19.721-19.795-21.673-22.062-21.673-25.157 0-3.0974 1.9642-5.372 21.932-25.398 20.548-20.609 22.161-21.996 25.568-21.996s5.0199 1.3872 25.568 21.996c19.967 20.026 21.932 22.301 21.932 25.398 0 3.0953-1.9498 5.3592-21.628 25.112-11.896 11.94-22.583 21.872-23.75 22.071-1.167 0.19858-3.0563 0.21893-4.1985 0.0452zm23.077-27.222 19.981-20-19.981-20c-10.99-11-20.44-20-21-20s-10.01 9-21 20l-19.981 20 19.981 20c10.99 11 20.44 20 21 20s10.01-9 21-20z" fill="#1795d0"/>
</svg>
