<svg version="1.1" viewBox="0 0 4290 1200" xmlns="http://www.w3.org/2000/svg">
 <path d="M612,28c158.67,3.44,295.31,57,406.21,168.11,112,112.15,168.15,250.1,167,408.24-1.09,155.08-57.46,290.29-167.49,400.07-113,112.78-252.09,168.79-411.32,166.83-153.5-1.89-287.55-57.93-396.31-166.92C97.62,891.62,42.33,753.14,42.54,594.21c.12-93.21,23.17-182.1,67.75-264.45C159.38,239.08,228.1,166.3,315.93,112.29,407.23,56.15,507.45,30.45,612,28Z" fill="#1586ba"/>
 <g fill="#1896d1">
  <path d="m3620.2 804.4c-41.72-0.1-76.41-5.46-109.67-18.65a138.44 138.44 0 0 1-29.12-15.34c-15.49-11-19.51-30-9.9-45.87 7-11.46 18.82-15.27 30.95-9.75 3.63 1.65 7 3.83 10.53 5.72 43 23.11 88.86 28.68 136.62 21.49a65.23 65.23 0 0 0 29.38-11.8c15.06-11.1 21.3-26.1 18.86-44.51-1.71-12.9-9.44-21.75-20.63-27.76-10.95-5.88-22.75-9.4-34.82-12-24.72-5.37-49.51-10.41-74.19-15.93-17.31-3.88-33.84-10-49-19.32-36-22.06-50-55.14-46.17-96 4.54-48.92 34.06-78.55 77.62-96.39a166.24 166.24 0 0 1 49.45-11.5c44.71-3.72 87.76 2.14 127.68 24.07a98.5 98.5 0 0 1 15 9.81c11 9 13.92 23.28 7.95 36.16-5.79 12.48-18.36 18.06-31.53 14.08-5.16-1.56-9.73-4.31-14.44-6.8-35-18.45-72.15-22.41-110.64-15.94a67 67 0 0 0-37.59 19.39 48.61 48.61 0 0 0-14.22 34.18c-0.33 17.08 6.67 30.26 21.83 38.73 10.29 5.77 21.43 9.09 32.84 11.58 24.71 5.39 49.51 10.4 74.17 16a183 183 0 0 1 50.25 19.08c38.57 22 52 55.61 45.42 99-5.94 39.31-30.22 65-65.16 81.45-27.68 13.09-57.21 17.26-81.47 16.82z"/>
  <path d="m3978.9 804.43c-42.82-0.22-77.18-5.57-110.13-18.6a136.53 136.53 0 0 1-30-15.86c-14.65-10.64-18.59-28.8-10-44.36 6.94-12.49 19.42-16.76 32.23-10.37 11 5.5 21.6 11.9 33.22 16.14a222.14 222.14 0 0 0 113.08 10.68c11-1.75 21.28-5.51 30.25-12.31 14.93-11.31 20.84-26.48 18.14-44.8-1.84-12.45-9.46-21-20.29-26.9s-22.74-9.45-34.8-12.08c-24.61-5.39-49.42-10.42-74.11-16-17.32-3.86-33.87-9.94-49.08-19.25-36.37-22.25-50.35-55.57-46.29-96.86 4.77-48.5 34.1-78 77.31-95.51 31.27-12.68 64.15-14.64 97.32-11.59 27.76 2.55 54.37 9.73 78.91 23.43a112.47 112.47 0 0 1 15.95 10.24c11.36 9.17 14.24 23.91 7.8 37-5.89 12-18.16 17.27-31 13.49-5.49-1.62-10.33-4.6-15.34-7.22-34.73-18.15-71.57-21.91-109.73-15.67a67.63 67.63 0 0 0-31.69 14c-16.21 13-23 29.69-19.37 50.33 2.09 11.91 8.71 20.72 18.88 27 10.65 6.53 22.45 10 34.54 12.66 24.72 5.38 49.51 10.4 74.17 16 17.91 4.09 35.13 10.28 51.14 19.51 38.55 22.22 51.17 56.24 44.84 98.42-6 39.7-30.49 65.58-65.9 82-27.71 12.85-57.24 16.96-80.05 16.48z"/>
  <path d="m3167.3 605.18c-0.34 23.31 2.39 46.37 11.2 68.36 15.82 39.49 45.19 61.38 87.24 66.76 36.26 4.64 70.27-1.68 101.89-20.23a58.28 58.28 0 0 1 5.29-2.81c13.64-6.48 26.65-4.07 35.24 6.5 8.74 10.76 9.28 27 1.15 38.17a51.16 51.16 0 0 1-13.21 12.07c-22 14.76-46.53 23.06-72.37 27.25-36 5.82-71.83 4.66-106.8-6.2-54.56-17-92.2-52.58-111-106.44-19.22-54.89-19.59-110.76-0.54-165.69 21.58-62.2 66.48-99.27 130.52-112.45 43.59-9 86.82-6.17 128.84 9.44 12.22 4.54 24 10.12 34.43 18 14.54 11 18.57 27.48 10.83 42.46-7.34 14.2-22.68 19.85-37.31 13.49a101.1 101.1 0 0 1-11.33-6.31c-26.42-15.81-55.32-20.45-85.52-18.7a126.65 126.65 0 0 0-39 8.07c-33.35 13-52.69 38.32-62.62 71.77-5.48 18.31-7.2 37.2-6.93 56.49z"/>
  <path d="M1377.87,607q0-77,0-154c0-6-.16-11.94,1.51-17.85,3.88-13.73,12.63-21.58,26.8-23.19a116,116,0,0,1,13-.47h184c2.67,0,5.34,0,8,.14,15.77.91,24.17,9.67,24.61,25.6a40.57,40.57,0,0,1-1.45,12.84c-2.62,8.83-8.32,14.1-17.26,16.18a64.68,64.68,0,0,1-14.88,1.36h-143c-12.1,0-11-.66-11,10.58v89c0,9.26.08,9.34,9.24,9.35h132a72,72,0,0,1,16.88,1.57c8.48,2,14.17,7.16,16.5,15.65a40.34,40.34,0,0,1,0,21.71c-2.68,9.7-9.31,15.21-19.12,16.63a98.28,98.28,0,0,1-14,.65q-63,.07-126,0h-5c-10.47.06-10.52.07-10.52,10.21V763c0,6,0,11.93-1.65,17.84-3.35,12.15-10.74,19.64-23.34,21.67a48.54,48.54,0,0,1-5.9,1c-22.86.8-39.18-8.64-39.3-35.46-.23-53.66-.07-107.33-.07-161Z"/>
  <path d="m2066 762.52c-3.21 1.32-3.75 3.73-5 5.59-14.17 21.89-34.54 33.69-60.3 36.08-24 2.23-47.15-1-68.66-12.93-34.3-19-50.32-53.89-41.76-92 3.85-17.15 13.46-30.21 28.86-38.92 17.15-9.7 36-13.65 55.23-16.24 25.48-3.43 51.11-4.3 76.79-4.07 3.33 0 6.67-0.06 10 0 2.68 0 4.53-0.79 4.61-3.87 0.32-13.06 0-26-5.8-38.14-6.33-13.21-18-18.28-31.46-20-28.89-3.81-56.28 2.34-82.83 13.33-2.77 1.15-5.5 2.38-8.27 3.54-18.92 8-32.86-5.82-32.66-23.65 0.13-11.44 5.25-20.74 16.21-25.5 43.24-18.79 88.15-26 134.68-16.54 42.73 8.68 69.11 34.93 74.54 86.73 1.5 14.3 1.33 28.62 1.34 42.94v104a94.25 94.25 0 0 1-1.52 17.83c-2.38 12.49-9.8 20.16-22.33 22.5a45 45 0 0 1-18.82-0.46c-11.69-2.74-18.36-10.32-20.65-21.74-1.2-5.87-1.43-11.89-2.2-18.48z"/>
  <path d="m2909.5 716.77c8.14-19.83 16.23-39.5 24.28-59.19l41.57-101.72c1.51-3.7 3.18-7.33 4.92-10.93 8.64-17.93 25.66-20.93 40.39-17.83 11.26 2.35 18.37 10.9 19.8 22.34 1.14 8.93-1.25 17.12-4.8 25.18q-27.93 63.57-55.73 127.2-37.5 85.56-75 171.09c-1.34 3-2.69 6.1-4.29 9-9.53 17.2-20.91 22.9-40.46 20.39-12.19-1.57-20.7-9.92-22.35-22.08-1.15-8.51 0.6-16.49 4.17-24.26 9.17-20 18-40.12 27.31-60 2.49-5.31 2.4-9.73 0.09-15q-44.17-101.18-88-202.48c-2.66-6.13-5.26-12.24-6.37-18.87-2.47-14.75 5.43-27.38 19.63-31.65a49.69 49.69 0 0 1 20.79-1.41c11.23 1.43 18.93 8 23.41 18.09 4.77 10.91 9.17 22.07 13.62 33.19q26.41 65.82 52.73 131.68c0.98 2.49 1.53 5.15 4.29 7.26z"/>
  <path d="M2610.26,680.19v-89c0-8.83-.1-8.86-8.56-9-6.67-.08-13.34.15-20-.17-14.94-.72-23.18-8.71-23.9-22.79-.88-17.07,5.51-26.09,21.2-28.23,7.87-1.08,16-.49,23.94-.69,7-.18,7-.2,7.39-7.09.77-13.67,2.36-27.21,6.41-40.35,8.85-28.66,27.86-47.92,55.15-59.5,14.22-6,29.15-9.35,44.42-11.11a274,274,0,0,1,27.88-2.12c13.83-.2,22.74,8.32,23.72,21.72,1.09,15.14-6.91,26.31-20.33,28.58-8.87,1.5-17.9,1.38-26.74,3.38-26.57,6-40.29,21.74-41.15,49-.69,21.75-2.75,16.94,16.76,17.46,8.66.23,17.33,0,26,0,2,0,4-.06,6,.1,21.06,1.68,31.77,20.87,22.14,39.76-4.48,8.81-12.48,11.66-21.59,11.87-12.33.28-24.66.13-37,.17a47.42,47.42,0,0,1-6,0c-5.58-.7-7,2.19-6.63,7.07.19,2.32,0,4.66,0,7v166a83.08,83.08,0,0,1-1.63,18.88c-2.53,10.95-9,18.25-20.16,21.24a49.46,49.46,0,0,1-21.79.84c-16.71-3-25.21-13.93-25.5-33-.29-18.66-.08-37.33-.09-56Q2610.26,697.19,2610.26,680.19Z"/>
  <path d="M2296.36,645c0,16,.1,32,0,48a110.39,110.39,0,0,0,1.76,19.88c3.6,20.82,16.69,32.89,37.84,34.94,11,1.07,21.9-.18,32.76-2.36,13.88-2.79,20.14,2.06,21.13,16.05.52,7.33.25,14.62-1.94,21.78-2.55,8.32-7.71,14-16.14,16.21-29.4,7.6-58.77,7.84-87.56-2.47-32.12-11.5-48.16-36.15-54.1-68.59-1.87-10.22-2.25-20.51-2.24-30.85q0-51.5,0-103c0-2-.16-4,0-6,.42-4.63-1.32-6.92-6.2-6.42a58.46,58.46,0,0,1-6,0c-6,0-12,.1-18-.08-21.72-.61-33.07-20.09-23.17-39.51a19.78,19.78,0,0,1,12.8-10.39,43.86,43.86,0,0,1,12.81-1.89c6.33.13,12.67.06,19,0,8.6-.09,8.66-.12,8.69-8.81q.08-20.5,0-41a45.79,45.79,0,0,1,2.3-15.74c4.49-12.59,15-18.78,32-18.82s27.38,6,32,18.73a42.65,42.65,0,0,1,2.21,14.74q0,21.5.07,43c.05,7.69.15,7.82,7.65,7.87,14,.1,28,0,42,0,3.33,0,6.67-.09,10,.06,20.72,1,31.1,15.9,25,35.83-3,10-10.61,15.57-22.89,15.84-15.32.38-30.66.17-46,.19-15.79,0-15.79,0-15.79,15.81S2296.36,629.36,2296.36,645Z"/>
  <path d="M1713.48,578.71V447.79c0-4,.16-8,.23-12a30.51,30.51,0,0,1,2.29-10.67c5-12.75,15.69-18.11,34.71-17.47,15.38.52,25.24,7.25,29.23,19.7,2.18,6.81,2,13.79,2,20.78V694c0,8,.15,16,1.92,23.83,4.33,19.25,16.88,29.82,36.68,30.29,6.31.15,12.64-.48,19-.64,7.5-.19,10,1.26,11.38,8.29,1.92,10.18,2.38,20.49-.54,30.66-2.42,8.41-7.81,14.2-16.4,15.72-26,4.57-51.89,5-76.32-6.69-25-12-36.38-34-41.64-60-2.33-11.51-2.6-23.14-2.6-34.8Q1713.46,639.67,1713.48,578.71Z"/>
  <path d="M2441.48,665V566c0-6.67.09-13.3,2.41-19.73,3.57-9.91,10.28-16.18,20.62-18.31a57.09,57.09,0,0,1,10.87-1.36c20.78-.2,33.09,11.32,34.45,32,.15,2.33.17,4.66.17,7v198c0,6-.33,12-2.2,17.77-3.69,11.4-11.13,18.64-23.13,21a42.21,42.21,0,0,1-15.85.49c-15.82-2.86-25.3-12.8-26.94-28.86a129.74,129.74,0,0,1-.39-13Q2441.45,713,2441.48,665Z"/>
  <path d="m2516 440.52c-0.28 19.73-9.56 30.37-29.22 34.09a60.27 60.27 0 0 1-25.67-0.69c-16.55-4-26.31-16.49-26.58-34-0.28-18 8.54-30.5 25.12-35a62.65 62.65 0 0 1 32.52 0c16.43 4.42 24.08 16.08 23.83 35.6z"/>
  <path d="m1155.7 600.78c-1.44 300.09-243 541.39-543 540.7-299.29-0.68-540.61-242.34-540.2-542.26 0.41-299.64 242.36-541.4 542.76-540.7 299.83 0.71 539.89 242.79 540.44 542.26z"/>
 </g>
 <path d="M2037.2,679.77c7.65,0,15.3.05,23,0,3.42,0,5.6.61,5.7,4.85.38,14.86-1.29,29.2-9,42.32a62.06,62.06,0,0,1-74.13,27.64C1963,747.86,1952,729.4,1956.1,709c2.23-11.17,9.69-17.79,20-21.62,13.59-5,27.9-5.92,42.12-7,6.28-.49,12.63-.08,18.95-.08Z" fill="#fff"/>
 <path d="M960,600c0,41,.75,82-.21,123-1,41.53-11.83,80.43-34.82,115.68a305.72,305.72,0,0,1-29.67,38.6c-7.29,8-16.37,14.47-24.9,21.31-28.87,23.17-61.89,36.87-98.17,43.66a238,238,0,0,1-44.5,3.84q-121.48-.2-243,0a123.38,123.38,0,0,1-28.48-3.69c-10.31-2.44-20.74-4.29-30.89-7.51A223.13,223.13,0,0,1,326,870.78c-25.32-28-43.15-60.35-51.87-97.45a296.36,296.36,0,0,1-8.17-68.91q.28-109.48,0-219A221.56,221.56,0,0,1,270.5,442c4.8-24.15,11.84-47.64,24.09-69.31a290.15,290.15,0,0,1,29-41.57c14.8-18,32.93-31.72,52.26-44,20.59-13.08,43-21.7,66.88-27.52,27.12-6.6,54.38-7.71,82-7.63,68,.19,136-.08,204,.13,30.16.09,59.24,6.64,87.38,17.1,34.06,12.66,62.51,34,86.49,60.74,22.85,25.53,39.6,55,48.38,88.39,5.65,21.45,9.75,43.15,9.29,65.72C959.44,522.67,960,561.34,960,600Z" fill="#1586ba"/>
 <path d="M750,283.91c22,1.67,42.78,7.73,62.91,16.49,20.57,9,38.7,21.76,55,36.88,14.32,13.31,25.76,29.17,35.88,46C916.26,404,923.1,426.61,927.91,450a24.3,24.3,0,0,1,.17,4c1.66,1.72.1,4.4,1.83,6.1V738c-1.77,1.68-.22,4.35-1.82,6.08a188.45,188.45,0,0,1-14,51.54c-16.25,38.17-42.46,68.08-77.21,90.26a197.82,197.82,0,0,1-72.88,28,42.62,42.62,0,0,1-6,.22c-1.73,1.61-4.4,0-6.08,1.83H474.06c-1.7-1.72-4.38-.17-6.1-1.83-19.15-1.18-36.89-7.37-54.18-15.19A196.68,196.68,0,0,1,346.19,849a199.83,199.83,0,0,1-33-51.69c-6.88-15.66-10.88-31.92-14.52-48.39-.92-4.16-.57-8.59-.8-12.9-2.26-3.78.57-8.32-1.83-12.08V474.07c2.39-3.76-.46-8.31,1.85-12.08-.27-19.7,6.1-38,13.29-55.77,10.43-25.75,25.49-49,45.86-68.07,28.68-26.85,62.23-44.9,101.19-52.06,5.85-1.07,11.65-2.78,17.72-2.15,3.77-2.31,8.33.54,12.08-1.85H737.9C741.69,284.47,746.24,281.64,750,283.91Z" fill="#1cb0f6"/>
 <g fill="#1896d1">
  <path d="m488.07 282.08c-3.61 3.36-8 1.4-12.08 1.85 3.59-3.45 8.01-1.44 12.08-1.85z"/>
  <path d="m750 283.91c-4.05-0.42-8.47 1.53-12.08-1.84 4.08 0.41 8.5-1.58 12.08 1.84z"/>
  <path d="m297.93 462c-0.44 4.05 1.51 8.47-1.85 12.08 0.4-4.08-1.6-8.5 1.85-12.08z"/>
  <path d="m296.07 723.94c3.36 3.61 1.41 8 1.83 12.08-3.41-3.6-1.42-8.02-1.83-12.08z"/>
  <path d="m929.91 460.08c-2.2-1.56-1.89-3.86-1.83-6.1 2.26 1.54 1.92 3.86 1.83 6.1z"/>
  <path d="m928.11 744c-0.09-2.24-0.4-4.54 1.82-6.08 0.07 2.25 0.42 4.57-1.82 6.08z"/>
  <path d="m468 914.07c2.23-0.06 4.54-0.36 6.1 1.83-2.26 0.1-4.58 0.43-6.1-1.83z"/>
  <path d="m751.94 915.94c1.54-2.21 3.85-1.92 6.08-1.83-1.53 2.23-3.85 1.89-6.08 1.83z"/>
 </g>
 <path d="m429.95 596.34c-0.27-10.52 5-18.31 12-25.33q51.28-51.21 102.5-102.48l41.69-41.71c10.69-10.73 23.15-13.56 37.44-8.71a25.45 25.45 0 0 1 10 6.42q74.87 75 149.81 149.87c14.09 14.1 13.28 31.18 0 47.11-1.06 1.28-2.32 2.39-3.5 3.56q-70.32 70.33-140.66 140.64c-6.17 6.16-12.89 11-21.89 12.94-10.75 2.27-19.64-0.11-27.28-7.62-10.69-10.51-21.23-21.18-31.83-31.78q-59-59-118.11-118a32.71 32.71 0 0 1-10.17-24.91z" fill="#199ddb"/>
 <path d="m612.34 749.28c-1.83 0.21-2.75-0.82-3.7-1.72-1.7-1.6-3.34-3.26-5-4.9l-137-137.05c-7.31-7.31-7.34-7.36-0.59-15.56 2.32-2.82 4.83-5.49 7.41-8.08q59.66-59.72 119.4-119.37c4.94-4.92 10.38-9.33 15.38-14.2 2.87-2.8 5.13-2.35 7.55 0.35 1.11 1.24 2.35 2.36 3.53 3.54q68.84 68.87 137.68 137.77c8.31 8.32 8.63 6.92 0.33 15.22q-69.22 69.24-138.49 138.45c-2.05 2.07-3.73 4.7-6.5 5.55z" fill="#77d0fa"/>
</svg>
